<svg width="17" height="16" viewBox="0 0 17 16" fill="none" xmlns="http://www.w3.org/2000/svg">
<mask id="mask0_51_375" style="mask-type:alpha" maskUnits="userSpaceOnUse" x="0" y="0" width="17" height="16">
<rect x="0.5" width="16" height="16" fill="#D9D9D9"/>
</mask>
<g mask="url(#mask0_51_375)">
<path d="M6.00004 12.0001C4.84448 12.0001 3.86115 11.5945 3.05004 10.7834C2.23893 9.9723 1.83337 8.98897 1.83337 7.83341C1.83337 6.67786 2.23893 5.69453 3.05004 4.88341C3.86115 4.0723 4.84448 3.66675 6.00004 3.66675H12.1667C13 3.66675 13.7084 3.95841 14.2917 4.54175C14.875 5.12508 15.1667 5.83341 15.1667 6.66675C15.1667 7.50008 14.875 8.20841 14.2917 8.79175C13.7084 9.37508 13 9.66675 12.1667 9.66675H6.33337C5.82226 9.66675 5.38893 9.48897 5.03337 9.13341C4.67782 8.77786 4.50004 8.34453 4.50004 7.83341C4.50004 7.3223 4.67782 6.88897 5.03337 6.53341C5.38893 6.17786 5.82226 6.00008 6.33337 6.00008H12.5V7.33341H6.33337C6.18893 7.33341 6.06948 7.38064 5.97504 7.47508C5.8806 7.56953 5.83337 7.68897 5.83337 7.83341C5.83337 7.97786 5.8806 8.0973 5.97504 8.19175C6.06948 8.28619 6.18893 8.33341 6.33337 8.33341H12.1667C12.6334 8.3223 13.0278 8.15841 13.35 7.84175C13.6723 7.52508 13.8334 7.13341 13.8334 6.66675C13.8334 6.20008 13.6723 5.80564 13.35 5.48341C13.0278 5.16119 12.6334 5.00008 12.1667 5.00008H6.00004C5.21115 4.98897 4.54171 5.26119 3.99171 5.81675C3.44171 6.3723 3.16671 7.04453 3.16671 7.83341C3.16671 8.61119 3.44171 9.2723 3.99171 9.81675C4.54171 10.3612 5.21115 10.6445 6.00004 10.6667H12.5V12.0001H6.00004Z" fill="white"/>
</g>
</svg>
