<svg width="62" height="62" viewBox="0 0 62 62" fill="none" xmlns="http://www.w3.org/2000/svg">
<path d="M31.0005 44.3331C31.7561 44.3331 32.3894 44.0776 32.9005 43.5665C33.4116 43.0553 33.6672 42.422 33.6672 41.6665C33.6672 40.9109 33.4116 40.2776 32.9005 39.7665C32.3894 39.2553 31.7561 38.9998 31.0005 38.9998C30.245 38.9998 29.6116 39.2553 29.1005 39.7665C28.5894 40.2776 28.3339 40.9109 28.3339 41.6665C28.3339 42.422 28.5894 43.0553 29.1005 43.5665C29.6116 44.0776 30.245 44.3331 31.0005 44.3331ZM28.3339 33.6665H33.6672V17.6665H28.3339V33.6665ZM31.0005 61.1331L22.0672 52.3331H9.66719V39.9331L0.867188 30.9998L9.66719 22.0665V9.66645H22.0672L31.0005 0.866455L39.9339 9.66645H52.3339V22.0665L61.1339 30.9998L52.3339 39.9331V52.3331H39.9339L31.0005 61.1331ZM31.0005 53.6665L37.6672 46.9998H47.0005V37.6665L53.6672 30.9998L47.0005 24.3331V14.9998H37.6672L31.0005 8.33312L24.3339 14.9998H15.0005V24.3331L8.33385 30.9998L15.0005 37.6665V46.9998H24.3339L31.0005 53.6665Z" fill="white"/>
</svg>
