<svg width="64" height="64" viewBox="0 0 64 64" fill="none" xmlns="http://www.w3.org/2000/svg">
<mask id="mask0_51_769" style="mask-type:alpha" maskUnits="userSpaceOnUse" x="0" y="0" width="64" height="64">
<rect width="64" height="64" fill="#D9D9D9"/>
</mask>
<g mask="url(#mask0_51_769)">
<path d="M27.4 32C26.1556 32 25.1333 31.5333 24.3333 30.6C23.5333 29.6667 23.2444 28.5778 23.4667 27.3333L24.2667 22.5333C24.6222 20.6222 25.5222 19.0556 26.9667 17.8333C28.4111 16.6111 30.0889 16 32 16C33.9556 16 35.6556 16.6111 37.1 17.8333C38.5444 19.0556 39.4444 20.6222 39.8 22.5333L40.6 27.3333C40.8222 28.5778 40.5333 29.6667 39.7333 30.6C38.9333 31.5333 37.9111 32 36.6667 32H27.4ZM8.26667 34.6C7.24444 34.6444 6.36667 34.4444 5.63333 34C4.9 33.5556 4.42222 32.8667 4.2 31.9333C4.11111 31.5333 4.08889 31.1333 4.13333 30.7333C4.17778 30.3333 4.28889 29.9556 4.46667 29.6C4.46667 29.6444 4.44444 29.5556 4.4 29.3333C4.31111 29.2444 4.08889 28.7111 3.73333 27.7333C3.64444 27.2 3.71111 26.6889 3.93333 26.2C4.15556 25.7111 4.44444 25.2889 4.8 24.9333L4.93333 24.8C5.02222 23.9556 5.36667 23.2444 5.96667 22.6667C6.56667 22.0889 7.31111 21.8 8.2 21.8C8.33333 21.8 8.75556 21.8889 9.46667 22.0667L9.66667 22C9.88889 21.7778 10.1778 21.6111 10.5333 21.5C10.8889 21.3889 11.2667 21.3333 11.6667 21.3333C12.1556 21.3333 12.5889 21.4111 12.9667 21.5667C13.3444 21.7222 13.6444 21.9556 13.8667 22.2667C13.9111 22.2667 13.9444 22.2778 13.9667 22.3C13.9889 22.3222 14.0222 22.3333 14.0667 22.3333C14.6889 22.3778 15.2333 22.5667 15.7 22.9C16.1667 23.2333 16.5111 23.6889 16.7333 24.2667C16.8222 24.5778 16.8556 24.8778 16.8333 25.1667C16.8111 25.4556 16.7556 25.7333 16.6667 26C16.6667 26.0444 16.6889 26.1333 16.7333 26.2667C17.0444 26.5778 17.2889 26.9222 17.4667 27.3C17.6444 27.6778 17.7333 28.0667 17.7333 28.4667C17.7333 28.6444 17.6 29.1111 17.3333 29.8667C17.2889 29.9556 17.2889 30.0444 17.3333 30.1333L17.4667 31.2C17.4667 32.1333 17.0778 32.9333 16.3 33.6C15.5222 34.2667 14.5778 34.6 13.4667 34.6H8.26667ZM53.3333 34.6667C51.8667 34.6667 50.6111 34.1444 49.5667 33.1C48.5222 32.0556 48 30.8 48 29.3333C48 28.8 48.0778 28.3 48.2333 27.8333C48.3889 27.3667 48.6 26.9111 48.8667 26.4667L47 24.8C46.5556 24.4444 46.4778 24 46.7667 23.4667C47.0556 22.9333 47.4667 22.6667 48 22.6667H53.3333C54.8 22.6667 56.0556 23.1889 57.1 24.2333C58.1444 25.2778 58.6667 26.5333 58.6667 28V29.3333C58.6667 30.8 58.1444 32.0556 57.1 33.1C56.0556 34.1444 54.8 34.6667 53.3333 34.6667ZM0 48V43.8C0 41.8444 0.988889 40.2778 2.96667 39.1C4.94444 37.9222 7.51111 37.3333 10.6667 37.3333C11.2444 37.3333 11.8 37.3444 12.3333 37.3667C12.8667 37.3889 13.3778 37.4444 13.8667 37.5333C13.2444 38.4222 12.7778 39.3778 12.4667 40.4C12.1556 41.4222 12 42.5111 12 43.6667V48H0ZM16 48V43.6667C16 40.7778 17.4778 38.4444 20.4333 36.6667C23.3889 34.8889 27.2444 34 32 34C36.8 34 40.6667 34.8889 43.6 36.6667C46.5333 38.4444 48 40.7778 48 43.6667V48H16ZM53.3333 37.3333C56.5333 37.3333 59.1111 37.9222 61.0667 39.1C63.0222 40.2778 64 41.8444 64 43.8V48H52V43.6667C52 42.5111 51.8556 41.4222 51.5667 40.4C51.2778 39.3778 50.8444 38.4222 50.2667 37.5333C50.7556 37.4444 51.2556 37.3889 51.7667 37.3667C52.2778 37.3444 52.8 37.3333 53.3333 37.3333Z" fill="white"/>
</g>
</svg>
