<svg width="48" height="48" viewBox="0 0 48 48" fill="none" xmlns="http://www.w3.org/2000/svg">
<path d="M24 40C24.9333 40 25.7222 39.6778 26.3667 39.0333C27.0111 38.3889 27.3333 37.6 27.3333 36.6667C27.3333 35.7333 27.0111 34.9444 26.3667 34.3C25.7222 33.6556 24.9333 33.3333 24 33.3333C23.0667 33.3333 22.2778 33.6556 21.6333 34.3C20.9889 34.9444 20.6667 35.7333 20.6667 36.6667C20.6667 37.6 20.9889 38.3889 21.6333 39.0333C22.2778 39.6778 23.0667 40 24 40ZM21.6 29.7333H26.5333C26.5333 28.1333 26.7111 26.9556 27.0667 26.2C27.4222 25.4444 28.1778 24.4889 29.3333 23.3333C30.8889 21.7778 31.9889 20.4778 32.6333 19.4333C33.2778 18.3889 33.6 17.2 33.6 15.8667C33.6 13.5111 32.8 11.6111 31.2 10.1667C29.6 8.72222 27.4444 8 24.7333 8C22.2889 8 20.2111 8.6 18.5 9.8C16.7889 11 15.6 12.6667 14.9333 14.8L19.3333 16.5333C19.6444 15.3333 20.2667 14.3667 21.2 13.6333C22.1333 12.9 23.2222 12.5333 24.4667 12.5333C25.6667 12.5333 26.6667 12.8556 27.4667 13.5C28.2667 14.1444 28.6667 15 28.6667 16.0667C28.6667 16.8222 28.4222 17.6222 27.9333 18.4667C27.4444 19.3111 26.6222 20.2444 25.4667 21.2667C24 22.5556 22.9889 23.7889 22.4333 24.9667C21.8778 26.1444 21.6 27.7333 21.6 29.7333ZM5.33333 48C3.86667 48 2.61111 47.4778 1.56667 46.4333C0.522222 45.3889 0 44.1333 0 42.6667V5.33333C0 3.86667 0.522222 2.61111 1.56667 1.56667C2.61111 0.522222 3.86667 0 5.33333 0H42.6667C44.1333 0 45.3889 0.522222 46.4333 1.56667C47.4778 2.61111 48 3.86667 48 5.33333V42.6667C48 44.1333 47.4778 45.3889 46.4333 46.4333C45.3889 47.4778 44.1333 48 42.6667 48H5.33333Z" fill="white"/>
</svg>
