<svg width="64" height="64" viewBox="0 0 64 64" fill="none" xmlns="http://www.w3.org/2000/svg">
<mask id="mask0_93_25" style="mask-type:alpha" maskUnits="userSpaceOnUse" x="0" y="0" width="64" height="64">
<rect width="64" height="64" fill="#D9D9D9"/>
</mask>
<g mask="url(#mask0_93_25)">
<path d="M8.00008 50.6667C6.53341 50.6667 5.27786 50.1445 4.23341 49.1C3.18897 48.0556 2.66675 46.8 2.66675 45.3334V18.6667C2.66675 17.2 3.18897 15.9445 4.23341 14.9C5.27786 13.8556 6.53341 13.3334 8.00008 13.3334H34.6667C36.1334 13.3334 37.389 13.8556 38.4334 14.9C39.4779 15.9445 40.0001 17.2 40.0001 18.6667V45.3334C40.0001 46.8 39.4779 48.0556 38.4334 49.1C37.389 50.1445 36.1334 50.6667 34.6667 50.6667H8.00008ZM45.3334 50.6667V13.3334H50.6667V50.6667H45.3334ZM56.0001 50.6667V13.3334H61.3334V50.6667H56.0001Z" fill="white"/>
</g>
</svg>
