<svg width="610" height="499" viewBox="0 0 610 499" fill="none" xmlns="http://www.w3.org/2000/svg">
<path d="M301.47 425.217C326.149 425.217 346.155 413.663 346.155 399.41C346.155 385.157 326.149 373.603 301.47 373.603C276.791 373.603 256.785 385.157 256.785 399.41C256.785 413.663 276.791 425.217 301.47 425.217Z" fill="#E0E0E0"/>
<path d="M468.116 494.183C507.128 494.183 538.754 475.924 538.754 453.401C538.754 430.878 507.128 412.619 468.116 412.619C429.103 412.619 397.477 430.878 397.477 453.401C397.477 475.924 429.103 494.183 468.116 494.183Z" fill="#E0E0E0"/>
<path d="M121.483 498.59C160.495 498.59 192.121 480.332 192.121 457.808C192.121 435.285 160.495 417.026 121.483 417.026C82.4701 417.026 50.8442 435.285 50.8442 457.808C50.8442 480.332 82.4701 498.59 121.483 498.59Z" fill="#E0E0E0"/>
<path d="M573.616 424.421L560.274 418.965C558.598 407.432 557.631 395.808 557.38 384.157C557.38 362.358 570.961 335.701 588.192 340.162C605.424 344.623 583.333 369.009 579.749 387.847C576.165 406.685 573.616 424.421 573.616 424.421Z" fill="#000080"/>
<path opacity="0.3" d="M573.616 424.421L560.274 418.965C558.598 407.432 557.631 395.808 557.38 384.157C557.38 362.358 570.961 335.701 588.192 340.162C605.424 344.623 583.333 369.009 579.749 387.847C576.165 406.685 573.616 424.421 573.616 424.421Z" fill="white"/>
<path d="M567.151 422.735C567.297 422.715 567.43 422.638 567.519 422.521C567.609 422.405 567.648 422.257 567.629 422.111C561.27 374.32 582.763 347.769 582.976 347.543C583.071 347.429 583.116 347.281 583.103 347.133C583.089 346.985 583.017 346.848 582.903 346.753C582.788 346.658 582.641 346.613 582.493 346.626C582.345 346.64 582.208 346.712 582.113 346.826C581.9 347.092 560.089 373.961 566.514 422.257C566.524 422.331 566.548 422.401 566.586 422.465C566.623 422.529 566.673 422.585 566.732 422.63C566.792 422.674 566.859 422.707 566.931 422.725C567.003 422.743 567.078 422.746 567.151 422.735Z" fill="white"/>
<path d="M580.466 427.607L573.497 424.447C571.409 413.71 571.727 402.643 574.426 392.042C578.9 374.864 593.795 364.27 601.295 366.023C610.468 368.16 611.358 376.643 608.676 382.55C605.477 389.546 583.413 408.49 580.466 427.607Z" fill="#000080"/>
<path opacity="0.1" d="M580.466 427.607L573.497 424.447C571.409 413.71 571.727 402.643 574.426 392.042C578.9 374.864 593.795 364.27 601.295 366.023C610.468 368.16 611.358 376.643 608.676 382.55C605.477 389.546 583.413 408.49 580.466 427.607Z" fill="white"/>
<path d="M576.842 426.505C576.991 426.488 577.128 426.413 577.222 426.297C577.317 426.18 577.361 426.031 577.346 425.881C574.213 395.56 600.671 372.249 600.95 372.023C601.051 371.915 601.107 371.773 601.107 371.625C601.107 371.477 601.051 371.335 600.95 371.226C600.898 371.173 600.836 371.131 600.768 371.103C600.699 371.074 600.626 371.059 600.552 371.059C600.477 371.059 600.404 371.074 600.336 371.103C600.267 371.131 600.205 371.173 600.153 371.226C599.875 371.465 572.992 395.122 576.165 426.054C576.197 426.202 576.285 426.332 576.412 426.417C576.538 426.501 576.692 426.533 576.842 426.505Z" fill="white"/>
<path d="M43.9281 412.208L53.0882 406.977C53.0882 406.977 57.469 382.803 54.19 362.013C49.5702 332.808 29.6704 322.705 22.4486 325.612C15.2268 328.52 13.5275 337.175 26.5772 354.061C34.2769 364.018 44.1804 385.086 43.9281 412.208Z" fill="#000080"/>
<g opacity="0.15">
<path d="M43.9281 412.208L53.0882 406.977C53.0882 406.977 57.469 382.803 54.19 362.013C49.5702 332.808 29.6704 322.705 22.4486 325.612C15.2268 328.52 13.5275 337.175 26.5772 354.061C34.2769 364.018 44.1804 385.086 43.9281 412.208Z" fill="white"/>
</g>
<path d="M47.2473 400.605H47.1544C47.0704 400.594 46.9894 400.566 46.9163 400.522C46.8432 400.479 46.7795 400.422 46.7288 400.354C46.6781 400.286 46.6415 400.209 46.6211 400.126C46.6007 400.044 46.597 399.959 46.6101 399.875C50.3803 372.514 39.3883 342.538 27.0157 330.458C26.9389 330.402 26.875 330.33 26.8283 330.247C26.7817 330.164 26.7534 330.072 26.7453 329.978C26.7373 329.883 26.7496 329.788 26.7816 329.698C26.8136 329.609 26.8644 329.527 26.9307 329.459C26.9969 329.391 27.0771 329.338 27.1656 329.303C27.2542 329.268 27.3491 329.253 27.444 329.259C27.539 329.264 27.6316 329.29 27.7157 329.334C27.7999 329.378 27.8735 329.44 27.9317 329.515C40.5167 341.755 51.7344 372.289 47.9111 400.034C47.8886 400.194 47.8088 400.339 47.6867 400.444C47.5646 400.549 47.4084 400.606 47.2473 400.605Z" fill="white"/>
<path d="M18.5458 426.877C17.0987 427.7 14.125 425.894 12.9834 425.124C11.0251 423.774 9.444 421.947 8.39009 419.814C7.21313 417.407 6.81414 414.693 7.24841 412.048C7.47822 410.651 7.80649 409.271 8.23079 407.92L9.38574 403.937C9.84077 402.661 10.0393 401.307 9.96986 399.954C9.6247 397.206 7.18203 395.295 4.97832 393.635C2.52237 391.803 -0.0132235 389.387 5.19034e-05 386.082C0.171341 383.521 1.19479 381.09 2.90736 379.178C4.47385 377.174 6.34568 375.408 7.77942 373.297C8.90323 371.816 9.48013 369.992 9.41229 368.133C9.26022 367.003 8.8809 365.914 8.29716 364.934C6.95417 362.892 5.78196 360.743 4.79246 358.509C3.98267 356.199 4.10214 353.331 5.9076 351.672C6.71104 351.071 7.62638 350.638 8.59984 350.396C9.57329 350.154 10.5852 350.11 11.5762 350.265C13.4612 350.487 15.2741 351.121 16.8863 352.123C22.1301 355.031 25.1171 361.243 30.6794 363.487C32.8817 364.173 35.1253 364.718 37.3968 365.12C38.5369 365.331 39.6199 365.78 40.5758 366.436C41.5317 367.092 42.3391 367.942 42.9459 368.93C44.9903 373.005 41.2068 378.023 42.6406 382.351C43.9681 386.175 47.6321 387.661 49.7163 391.1C50.5707 392.62 50.9151 394.374 50.6987 396.105C50.5134 399.032 49.7982 401.902 48.5879 404.574C47.2261 407.231 45.6686 409.782 43.9283 412.208C43.8486 412.301 18.7714 426.718 18.5458 426.877Z" fill="#000080"/>
<path d="M33.4018 418.965C33.3146 418.961 33.2289 418.941 33.1497 418.904C33.0704 418.868 32.9992 418.816 32.94 418.752C32.8808 418.687 32.8349 418.612 32.8048 418.53C32.7746 418.449 32.761 418.362 32.7645 418.274C33.8398 392.387 21.6398 363.845 12.7718 355.482C12.651 355.36 12.5833 355.195 12.5833 355.024C12.5833 354.852 12.651 354.688 12.7718 354.566C12.8959 354.444 13.0627 354.376 13.2365 354.376C13.4102 354.376 13.577 354.444 13.7011 354.566C22.6885 362.996 35.1541 392.069 34.0522 418.341C34.0454 418.509 33.9738 418.667 33.8526 418.784C33.7313 418.9 33.5698 418.965 33.4018 418.965Z" fill="white"/>
<path d="M29.5233 388.365H29.3242C23.1904 386.678 16.8923 385.659 10.5395 385.325C10.3635 385.325 10.1946 385.255 10.0701 385.13C9.94566 385.006 9.87573 384.837 9.87573 384.661C9.87573 384.485 9.94566 384.316 10.0701 384.192C10.1946 384.067 10.3635 383.997 10.5395 383.997C17.0049 384.333 23.4146 385.37 29.656 387.09C29.738 387.115 29.8144 387.155 29.8808 387.209C29.9472 387.263 30.0023 387.329 30.043 387.404C30.0837 387.48 30.1091 387.562 30.1179 387.647C30.1267 387.732 30.1186 387.818 30.0941 387.9C30.0554 388.025 29.9806 388.136 29.879 388.219C29.7774 388.302 29.6537 388.352 29.5233 388.365Z" fill="white"/>
<path d="M503.03 444.984L490.657 443.564L487.458 418.633L502.578 423.12L503.03 444.984Z" fill="#B16668"/>
<path d="M475.922 465.322C475.744 465.814 475.67 466.337 475.707 466.858C475.743 467.38 475.889 467.888 476.135 468.349C477.462 469.889 480.887 471.695 485.56 472.026C490.034 472.345 494.017 471.748 496.632 470.088C497.769 469.5 498.743 468.64 499.466 467.583C500.188 466.527 500.638 465.308 500.774 464.035C501.026 461.499 500.774 459.043 501.955 457.092C503.137 455.14 504.849 453.242 505.234 452.259C505.694 450.564 505.694 448.777 505.234 447.082L475.922 465.322Z" fill="#263238"/>
<path d="M488.148 443.126C488.109 444.088 487.934 445.04 487.631 445.953C486.946 447.919 486.028 449.796 484.896 451.542C484.34 452.47 483.719 453.358 483.037 454.197C481.71 455.804 480.011 457.131 478.577 458.671C477.056 460.123 476.081 462.055 475.816 464.141C475.63 467.645 481.205 468.84 484.139 469.358C487.304 469.911 490.552 469.748 493.644 468.88C495.268 468.457 496.736 467.575 497.871 466.338C499.006 465.102 499.76 463.565 500.043 461.91C500.216 460.928 500.149 459.932 500.269 458.963C500.655 456.725 501.59 454.618 502.99 452.83C503.803 451.798 504.502 450.681 505.075 449.498C505.991 447.334 505.26 444.891 504.676 442.741C504.172 440.869 503.561 438.758 502.897 438.904C502.897 439.873 502.897 440.006 502.247 440.657C501.596 441.307 501.344 442.741 500.415 443.471C500.711 442.662 500.929 441.826 501.065 440.975C501.123 440.634 501.052 440.284 500.866 439.993C500.558 439.717 500.19 439.517 499.791 439.409C498.41 438.947 496.987 438.622 495.543 438.44C493.571 438.214 491.58 438.214 489.609 438.44C489.198 438.513 488.826 438.729 488.56 439.05C488.321 439.403 488.192 439.819 488.188 440.245C488.122 440.75 488.175 442.197 488.148 443.126Z" fill="#455A64"/>
<path d="M484.417 452.286C485.745 451.304 490.431 451.29 492.024 451.463C493.648 451.601 495.21 452.15 496.564 453.056C496.762 453.197 497.004 453.264 497.247 453.244C497.49 453.225 497.718 453.121 497.892 452.95C497.992 452.85 498.07 452.73 498.12 452.597C498.17 452.465 498.19 452.323 498.18 452.182C498.17 452.041 498.129 451.903 498.061 451.779C497.993 451.655 497.899 451.547 497.785 451.463C496.298 450.365 494.531 449.707 492.688 449.564C490.388 449.396 488.076 449.53 485.811 449.963C485.811 449.963 484.032 451.118 484.417 452.286Z" fill="#F5F5F5"/>
<path d="M481.418 455.923C483.064 454.954 488.055 455.087 489.662 455.26C491.254 455.423 492.775 456.004 494.069 456.946C494.269 457.084 494.51 457.15 494.752 457.13C494.994 457.111 495.222 457.008 495.397 456.839C495.497 456.74 495.575 456.619 495.625 456.487C495.675 456.354 495.695 456.213 495.685 456.072C495.675 455.93 495.635 455.793 495.566 455.669C495.498 455.545 495.404 455.437 495.291 455.353C493.113 454.224 490.737 453.53 488.294 453.308C484.312 453.029 483.343 453.826 483.343 453.826C482.886 454.01 482.476 454.294 482.143 454.657C481.81 455.02 481.562 455.452 481.418 455.923Z" fill="#F5F5F5"/>
<path d="M494.254 445.808C492.008 445.551 489.735 445.69 487.537 446.219C486.846 446.604 486.382 447.706 486.833 447.985C488.839 447.444 490.92 447.237 492.993 447.374C494.465 447.522 495.901 447.917 497.241 448.542C497.586 448.702 497.985 448.901 498.33 449.1C498.441 449.17 498.565 449.216 498.696 449.234C498.826 449.252 498.959 449.242 499.085 449.204C499.21 449.167 499.327 449.102 499.426 449.015C499.524 448.929 499.603 448.822 499.657 448.702C499.752 448.506 499.77 448.282 499.709 448.073C499.647 447.865 499.511 447.687 499.325 447.573C497.78 446.629 496.051 446.027 494.254 445.808Z" fill="#F5F5F5"/>
<path d="M456.898 433.647L445.136 430.368V406.592L459.725 407.229L456.898 433.647Z" fill="#B16668"/>
<path d="M420.286 446.378C419.954 447.404 420.016 448.516 420.458 449.498C420.896 450.401 425.662 453.096 432.088 452.657C436.847 452.316 441.429 450.712 445.363 448.011C447.806 446.392 450.354 446.086 453.54 445.914C456.727 445.741 460.895 444.135 461.599 442.648C461.957 441.316 461.92 439.91 461.492 438.599L420.286 446.378Z" fill="#263238"/>
<path d="M446.171 426.332L445.666 426.226C445.387 426.16 445.096 426.16 444.817 426.226C444.508 426.328 444.233 426.511 444.02 426.757C443.393 427.565 442.846 428.432 442.387 429.346C441.06 431.536 438.206 433.329 435.126 435.015C433.028 436.143 430.971 437.019 428.807 437.988C426.643 438.957 423.656 439.595 421.93 440.763C419.408 442.462 419.076 446.723 421.93 448.409C424.399 449.87 430.931 451.449 437.768 449.511C441.485 448.449 445.627 444.48 450.512 444.095C453.618 443.843 459.499 442.98 461.504 440.617C462.247 439.568 461.252 436.249 460.442 433.382C459.552 430.249 458.716 425.416 457.681 425.642C457.689 425.866 457.645 426.089 457.55 426.292C457.455 426.495 457.314 426.673 457.136 426.81C456.751 427.209 456.234 427.461 455.809 427.819C455.084 428.532 454.499 429.374 454.083 430.302C453.914 430.715 453.603 431.054 453.207 431.258C452.676 431.444 452.291 431.125 451.879 430.912C451.296 430.645 450.636 430.598 450.021 430.78C450.085 430.157 450.196 429.54 450.353 428.934C450.412 428.744 450.412 428.541 450.353 428.35C450.277 428.158 450.136 427.998 449.954 427.899C448.817 427.118 447.528 426.584 446.171 426.332Z" fill="#455A64"/>
<path d="M438.073 433.275C438.295 432.846 438.622 432.48 439.024 432.21C439.425 431.941 439.889 431.778 440.37 431.736C441.777 431.47 444.273 432.519 445.826 433.793C445.974 433.912 446.091 434.064 446.166 434.239C446.241 434.413 446.272 434.603 446.256 434.792C446.241 434.98 446.179 435.163 446.076 435.322C445.973 435.481 445.833 435.613 445.667 435.705C445.458 435.823 445.218 435.872 444.98 435.846C444.741 435.82 444.517 435.719 444.339 435.559C442.626 434.014 440.379 433.195 438.073 433.275Z" fill="#F5F5F5"/>
<path d="M433.679 435.731C433.987 435.296 434.395 434.941 434.869 434.696C435.342 434.452 435.868 434.324 436.401 434.324C438.583 434.42 440.68 435.205 442.388 436.568C442.528 436.684 442.637 436.833 442.707 437.001C442.777 437.168 442.806 437.351 442.79 437.532C442.774 437.713 442.715 437.888 442.617 438.041C442.52 438.195 442.386 438.322 442.229 438.413C442.022 438.537 441.78 438.59 441.54 438.564C441.3 438.538 441.076 438.433 440.901 438.267C439.962 437.333 438.826 436.621 437.577 436.183C436.327 435.744 434.996 435.59 433.679 435.731Z" fill="#F5F5F5"/>
<path d="M428.914 437.935C429.264 437.535 429.697 437.214 430.183 436.997C430.669 436.779 431.196 436.669 431.728 436.674C433.83 436.804 435.837 437.593 437.463 438.931C437.603 439.049 437.712 439.198 437.782 439.367C437.852 439.536 437.88 439.719 437.865 439.901C437.849 440.084 437.79 440.259 437.692 440.414C437.595 440.568 437.461 440.697 437.304 440.789C437.097 440.914 436.855 440.967 436.615 440.941C436.375 440.914 436.151 440.81 435.976 440.643C435.089 439.676 433.989 438.929 432.763 438.459C431.538 437.989 430.22 437.81 428.914 437.935Z" fill="#F5F5F5"/>
<path d="M500.322 278.524C501.132 303.044 501.185 356.146 501.185 356.146C501.437 359.199 501.703 364.615 501.929 375.607C502.26 391.538 503.03 430.873 503.03 430.873C503.03 430.873 495.424 434.444 488.427 431.536C488.427 431.536 478.71 376.231 476.719 360.46C474.98 346.693 471.647 314.408 471.647 314.408L467.054 355.389C467.054 355.389 467.054 366.009 466.43 375.382C465.912 382.683 458.823 420.292 458.823 420.292C454.193 421.522 449.304 421.361 444.765 419.827C444.765 419.827 444.128 362.093 443.995 355.389C443.849 347.769 445.814 265.382 445.814 265.382L500.322 278.524Z" fill="#455A64"/>
<path d="M471.674 314.408L469.922 300.508C464.263 299.062 458.911 296.606 454.124 293.26C454.124 293.26 457.496 297.774 467.399 302.553L469.629 315.164L467.107 355.389L471.674 314.408Z" fill="#37474F"/>
<path d="M445.19 209.718C441.606 214.418 423.166 239.72 423.166 239.72L406.134 226.525C402.151 223.405 400.97 219.316 398.474 216.489C395.978 213.661 393.243 212.984 390.442 210.621C387.641 208.258 386.566 206.466 385.61 208.483C384.654 210.501 387.747 214.019 388.265 214.869C388.783 215.719 391.982 217.75 387.761 217.524C383.539 217.298 375.415 212.479 373.45 211.59C371.485 210.7 371.432 213.13 372.361 214.723C373.291 216.316 372.826 220.75 373.914 223.604C375.003 226.458 376.915 228.211 380.804 230.136C384.429 231.941 393.243 233.069 396.111 234.875C402.403 241.327 414.272 253.368 417.272 255.598C421.4 258.664 425.396 261.492 431.715 255.412C438.035 249.332 456.341 225.476 456.341 225.476L460.125 202.788C453.912 202.563 449.518 204.05 445.19 209.718Z" fill="#B16668"/>
<path d="M423.166 239.721C425.503 241.446 427.932 245.323 428.158 247.062C428.13 245.414 427.763 243.79 427.077 242.291C426.392 240.792 425.404 239.452 424.175 238.353L423.166 239.721Z" fill="#9A4A4D"/>
<path d="M461.585 202.231C461.585 202.231 452.823 202.125 448.973 204.82C445.123 207.515 442.269 211.457 436.016 220.551C430.533 228.516 427.878 232.339 427.878 232.339C431.468 237.648 436.693 241.639 442.76 243.703L459.115 223.445L461.585 202.231Z" fill="#37474F"/>
<path d="M478.537 201.806C483.502 202.284 490.485 202.337 495.397 202.842C498.809 204.249 505.393 209.984 504.902 214.073C503.07 229.353 499.366 254.403 499.366 254.403L500.588 280.954C493.751 287.777 461.757 290.446 445.269 279.533C445.269 279.533 445.8 231.848 446.942 223.777C448.973 209.32 450.752 203.957 458.213 202.682C465.673 201.408 478.537 201.806 478.537 201.806Z" fill="#000080"/>
<path d="M506.654 210.103C510.239 214.803 528.691 240.106 528.691 240.106L545.737 226.91C549.72 223.777 550.901 219.688 553.397 216.874C555.893 214.059 558.627 213.369 561.429 211.006C564.23 208.643 565.305 206.851 566.261 208.855C567.217 210.86 564.123 214.404 563.606 215.254C563.088 216.104 559.889 218.135 564.11 217.909C568.332 217.683 576.443 212.851 578.421 211.962C580.399 211.072 580.426 213.502 579.51 215.095C578.594 216.688 579.032 221.135 577.956 223.989C576.881 226.843 574.956 228.583 571.066 230.521C567.442 232.326 558.627 233.455 555.76 235.26C549.467 241.699 537.599 253.753 534.599 255.97C530.47 259.036 526.475 261.864 520.155 255.797C513.836 249.73 499.393 230.839 499.393 230.839L491.746 203.174C497.946 202.948 502.34 204.435 506.654 210.103Z" fill="#B16668"/>
<path d="M528.691 240.106C526.354 241.831 523.925 245.708 523.699 247.447C523.724 245.797 524.092 244.17 524.777 242.669C525.462 241.168 526.451 239.825 527.682 238.725L528.691 240.106Z" fill="#9A4A4D"/>
<path d="M490.869 202.51C490.869 202.51 498.741 202.019 502.883 205.165C506.613 208.032 509.521 211.803 515.84 220.896C521.323 228.861 523.978 232.685 523.978 232.685C520.381 237.992 515.152 241.981 509.083 244.048L497.945 230.322C492.143 222.967 486.395 211.776 490.869 202.51Z" fill="#37474F"/>
<path d="M479.772 165.856C479.798 168.902 478.921 171.887 477.25 174.434C475.58 176.981 473.192 178.975 470.388 180.165C467.585 181.354 464.491 181.686 461.499 181.118C458.507 180.549 455.75 179.106 453.578 176.971C451.406 174.836 449.916 172.105 449.296 169.123C448.676 166.141 448.954 163.042 450.095 160.219C451.237 157.395 453.19 154.973 455.707 153.259C458.225 151.545 461.194 150.616 464.24 150.59C466.262 150.572 468.268 150.953 470.143 151.711C472.018 152.469 473.726 153.589 475.168 155.006C476.61 156.424 477.759 158.112 478.549 159.973C479.339 161.835 479.755 163.834 479.772 165.856Z" fill="#263238"/>
<path d="M491.096 176.716C491.096 176.716 488.693 188.464 487.711 190.389C487.057 191.585 485.968 192.483 484.671 192.898L484.764 184.641L491.096 176.716Z" fill="#263238"/>
<path d="M487.817 159.949C488.687 159.837 489.572 159.926 490.403 160.209C491.233 160.492 491.988 160.962 492.609 161.582C494.68 163.666 493.592 170.251 491.096 176.716L486.396 177.3L487.817 159.949Z" fill="#263238"/>
<path d="M484.988 177.313C485.931 177.87 487.258 175.985 488.413 174.817C489.568 173.649 493.339 171.896 495.277 175.866C497.215 179.835 493.684 185.318 490.71 186.274C485.572 187.946 484.763 184.641 484.763 184.641L484.55 203.784C478.231 212.055 460.456 211.51 467.784 202.881V197.226C465.495 197.61 463.172 197.748 460.854 197.637C457.057 197.093 454.654 194.119 453.459 190.031C451.561 183.473 450.804 178.162 452.265 165.192C453.858 150.988 470.359 150.696 479.32 156.232C488.281 161.767 484.988 177.313 484.988 177.313Z" fill="#B16668"/>
<path d="M485.001 178.893C485.465 178.893 487.244 175.893 488.412 174.817C490.019 173.317 487.815 159.949 487.815 159.949C488.366 158.763 488.547 157.438 488.334 156.147C488.121 154.856 487.524 153.66 486.62 152.714C484.377 150.284 481.244 147.324 471.154 148.598C463.946 149.514 456.127 151.838 449.768 148.784C449.202 150.854 449.266 153.046 449.951 155.08C450.637 157.113 451.914 158.896 453.618 160.201C453.618 160.201 455.928 161.661 461.968 162.338C467.537 162.705 473.128 162.549 478.668 161.874C480.421 161.622 480.806 163.307 481.788 167.941C482.651 171.99 483.408 178.88 485.001 178.893Z" fill="#263238"/>
<path d="M487.817 160.984L493.486 157.878C493.302 157.494 493.042 157.152 492.721 156.873C492.401 156.593 492.026 156.381 491.621 156.251C491.217 156.12 490.789 156.074 490.366 156.114C489.942 156.154 489.531 156.28 489.158 156.484C488.398 156.918 487.835 157.627 487.585 158.465C487.336 159.304 487.419 160.206 487.817 160.984Z" fill="#263238"/>
<path d="M467.744 197.226C467.744 197.226 476.187 195.447 479.121 193.854C480.85 192.935 482.262 191.514 483.17 189.779C482.741 191.508 481.969 193.133 480.9 194.558C478.762 197.346 467.77 199.47 467.77 199.47L467.744 197.226Z" fill="#9A4A4D"/>
<path d="M467.068 175.959C467.064 176.185 467.105 176.409 467.189 176.619C467.273 176.829 467.397 177.021 467.555 177.182C467.713 177.344 467.901 177.473 468.109 177.561C468.317 177.65 468.541 177.696 468.767 177.698C469.12 177.711 469.468 177.618 469.768 177.431C470.067 177.244 470.304 176.972 470.447 176.649C470.59 176.326 470.633 175.968 470.571 175.62C470.508 175.273 470.343 174.952 470.096 174.7C469.849 174.447 469.532 174.274 469.186 174.204C468.84 174.133 468.481 174.168 468.155 174.303C467.829 174.439 467.551 174.669 467.357 174.964C467.163 175.259 467.063 175.606 467.068 175.959Z" fill="#263238"/>
<path d="M472.099 170.131L468.328 168.418C468.109 168.934 468.097 169.514 468.295 170.039C468.493 170.563 468.885 170.991 469.39 171.233C469.64 171.343 469.909 171.402 470.182 171.407C470.455 171.411 470.726 171.36 470.979 171.257C471.231 171.154 471.461 171.002 471.653 170.808C471.846 170.615 471.997 170.384 472.099 170.131Z" fill="#263238"/>
<path d="M455.969 168.047L452.69 170.622C452.845 170.846 453.044 171.034 453.275 171.177C453.506 171.32 453.765 171.414 454.034 171.452C454.303 171.491 454.577 171.474 454.839 171.402C455.101 171.33 455.346 171.204 455.557 171.034C455.992 170.681 456.277 170.176 456.354 169.622C456.43 169.067 456.293 168.504 455.969 168.047Z" fill="#263238"/>
<path d="M453.99 175.547C454.006 175.864 454.114 176.17 454.302 176.426C454.49 176.682 454.749 176.877 455.047 176.987C455.344 177.097 455.668 177.117 455.977 177.045C456.286 176.972 456.567 176.811 456.785 176.58C457.003 176.35 457.148 176.06 457.203 175.747C457.258 175.435 457.22 175.113 457.093 174.822C456.967 174.531 456.757 174.283 456.491 174.11C456.225 173.937 455.914 173.846 455.597 173.848C455.379 173.853 455.165 173.901 454.967 173.99C454.768 174.078 454.589 174.205 454.439 174.363C454.29 174.521 454.173 174.707 454.096 174.91C454.019 175.113 453.983 175.33 453.99 175.547Z" fill="#263238"/>
<path d="M462.779 174.18L461.823 184.336L456.58 182.318L462.779 174.18Z" fill="#9A4A4D"/>
<path d="M465.659 188.146C465.656 188.469 465.75 188.786 465.927 189.056C466.105 189.327 466.359 189.538 466.658 189.664C466.956 189.789 467.284 189.824 467.602 189.762C467.92 189.701 468.212 189.546 468.441 189.318C468.671 189.09 468.828 188.8 468.892 188.482C468.956 188.165 468.925 187.836 468.801 187.537C468.678 187.238 468.469 186.982 468.2 186.802C467.931 186.622 467.615 186.526 467.292 186.526C466.861 186.526 466.448 186.696 466.142 187C465.836 187.303 465.662 187.715 465.659 188.146Z" fill="#9A4A4D"/>
<path d="M507.106 79.9911C509.637 80.5549 512.077 81.4709 514.354 82.7126C516.532 83.8846 518.483 85.4356 520.116 87.2926C521.687 89.0917 522.847 91.2119 523.514 93.5054C524.213 95.9366 524.267 98.5074 523.673 100.966C523.28 102.918 522.504 104.772 521.39 106.422C520.389 107.842 519.186 109.108 517.819 110.179C516.481 111.218 515.055 112.137 513.558 112.927L509.336 115.158C508.063 115.823 506.854 116.605 505.725 117.494C504.706 118.268 503.924 119.312 503.468 120.508C503.239 121.041 502.867 121.5 502.393 121.835C502.166 122.009 501.902 122.129 501.621 122.187C501.341 122.244 501.051 122.237 500.773 122.167L494.561 120.839C494.262 120.777 493.98 120.655 493.729 120.482C493.478 120.309 493.265 120.087 493.1 119.83C492.927 119.59 492.812 119.312 492.766 119.019C492.72 118.726 492.743 118.427 492.835 118.145C493.352 116.213 494.255 114.407 495.49 112.834C496.602 111.446 497.887 110.206 499.313 109.144C500.691 108.136 502.152 107.248 503.681 106.489C505.194 105.732 506.601 105.002 507.902 104.285C509.092 103.657 510.209 102.9 511.234 102.028C512.128 101.275 512.749 100.249 513 99.1076C513.23 98.1109 513.214 97.0734 512.955 96.0839C512.696 95.0944 512.202 94.1824 511.513 93.4258C509.797 91.5499 507.502 90.3021 504.995 89.8812C500.358 88.8458 496.437 90.4078 493.233 94.5675C492.926 95.0229 492.534 95.415 492.078 95.7224C491.832 95.8479 491.563 95.9231 491.287 95.9436C491.011 95.9641 490.734 95.9295 490.472 95.8419L483.834 94.3683C483.6 94.3232 483.377 94.2319 483.179 94.0997C482.981 93.9675 482.811 93.797 482.679 93.5984C482.535 93.395 482.437 93.1621 482.393 92.9165C482.35 92.6708 482.361 92.4186 482.427 92.1779C482.985 90.1376 484.033 88.2646 485.48 86.7217C487.104 84.9288 489.032 83.4368 491.175 82.3143C493.524 81.0813 496.057 80.2384 498.676 79.8185C501.47 79.3269 504.334 79.3855 507.106 79.9911ZM500.096 127.172C500.388 127.234 500.663 127.356 500.905 127.529C501.147 127.703 501.351 127.925 501.504 128.181C501.667 128.428 501.778 128.707 501.831 128.999C501.883 129.291 501.876 129.591 501.809 129.88L500.216 137.075C500.082 137.65 499.731 138.15 499.235 138.469C498.74 138.789 498.139 138.903 497.561 138.788L490.525 137.235C490.235 137.172 489.961 137.052 489.719 136.881C489.477 136.71 489.273 136.491 489.118 136.239C488.952 135.992 488.84 135.714 488.787 135.421C488.734 135.129 488.743 134.829 488.812 134.54L490.405 127.331C490.539 126.757 490.891 126.257 491.386 125.937C491.882 125.618 492.482 125.503 493.06 125.619L500.096 127.172Z" fill="#000080"/>
<path d="M527.975 147.682C529.731 147.393 531.519 147.357 533.285 147.576C534.983 147.769 536.633 148.263 538.157 149.036C539.613 149.781 540.89 150.832 541.901 152.116C542.973 153.493 543.664 155.127 543.905 156.855C544.181 158.2 544.181 159.586 543.905 160.931C543.629 162.101 543.182 163.224 542.578 164.263C541.986 165.265 541.311 166.215 540.56 167.104L538.423 169.626C537.779 170.381 537.202 171.189 536.697 172.042C536.247 172.801 536.017 173.67 536.033 174.552C536.031 174.966 535.911 175.371 535.688 175.72C535.586 175.887 535.449 176.029 535.286 176.137C535.123 176.245 534.939 176.315 534.745 176.344L530.404 177.061C529.985 177.126 529.556 177.026 529.21 176.782C529.039 176.671 528.897 176.522 528.793 176.347C528.69 176.172 528.628 175.976 528.612 175.773C528.431 174.412 528.535 173.029 528.917 171.711C529.262 170.528 529.767 169.398 530.418 168.352C531.039 167.351 531.745 166.405 532.528 165.524C533.312 164.648 534.015 163.825 534.679 163.029C535.277 162.321 535.798 161.551 536.232 160.732C536.613 160.021 536.748 159.204 536.617 158.409C536.509 157.709 536.233 157.047 535.812 156.478C535.391 155.909 534.838 155.451 534.201 155.143C532.628 154.374 530.841 154.159 529.13 154.532C527.582 154.76 526.142 155.46 525.007 156.536C523.871 157.613 523.095 159.013 522.784 160.546C522.7 160.92 522.547 161.276 522.333 161.595C522.076 161.877 521.719 162.048 521.337 162.073L516.717 162.829C516.389 162.883 516.053 162.812 515.775 162.63C515.63 162.536 515.507 162.411 515.415 162.265C515.323 162.118 515.265 161.952 515.244 161.781C515.083 160.331 515.279 158.863 515.815 157.506C516.391 155.937 517.245 154.484 518.337 153.218C519.528 151.828 520.936 150.64 522.506 149.7C524.18 148.679 526.038 147.993 527.975 147.682ZM535.555 179.795C535.759 179.761 535.967 179.768 536.168 179.816C536.368 179.864 536.557 179.952 536.723 180.074C536.889 180.192 537.03 180.342 537.137 180.515C537.245 180.689 537.316 180.882 537.347 181.083L538.17 186.101C538.205 186.305 538.198 186.513 538.15 186.714C538.102 186.914 538.014 187.103 537.892 187.269C537.775 187.437 537.626 187.579 537.452 187.686C537.279 187.794 537.085 187.864 536.883 187.893L531.971 188.703C531.769 188.736 531.564 188.729 531.365 188.681C531.167 188.633 530.98 188.546 530.816 188.424C530.646 188.309 530.501 188.16 530.392 187.987C530.282 187.813 530.209 187.618 530.179 187.415L529.356 182.384C529.295 181.97 529.4 181.55 529.649 181.214C529.898 180.878 530.27 180.654 530.683 180.592L535.555 179.795Z" fill="#000080"/>
<g opacity="0.2">
<path d="M527.975 147.682C529.731 147.393 531.519 147.357 533.285 147.576C534.983 147.769 536.633 148.263 538.157 149.036C539.613 149.781 540.89 150.832 541.901 152.116C542.973 153.493 543.664 155.127 543.905 156.855C544.181 158.2 544.181 159.586 543.905 160.931C543.629 162.101 543.182 163.224 542.578 164.263C541.986 165.265 541.311 166.215 540.56 167.104L538.423 169.626C537.779 170.381 537.202 171.189 536.697 172.042C536.247 172.801 536.017 173.67 536.033 174.552C536.031 174.966 535.911 175.371 535.688 175.72C535.586 175.887 535.449 176.029 535.286 176.137C535.123 176.245 534.939 176.315 534.745 176.344L530.404 177.061C529.985 177.126 529.556 177.026 529.21 176.782C529.039 176.671 528.897 176.522 528.793 176.347C528.69 176.172 528.628 175.976 528.612 175.773C528.431 174.412 528.535 173.029 528.917 171.711C529.262 170.528 529.767 169.398 530.418 168.352C531.039 167.351 531.745 166.405 532.528 165.524C533.312 164.648 534.015 163.825 534.679 163.029C535.277 162.321 535.798 161.551 536.232 160.732C536.613 160.021 536.748 159.204 536.617 158.409C536.509 157.709 536.233 157.047 535.812 156.478C535.391 155.909 534.838 155.451 534.201 155.143C532.628 154.374 530.841 154.159 529.13 154.532C527.582 154.76 526.142 155.46 525.007 156.536C523.871 157.613 523.095 159.013 522.784 160.546C522.7 160.92 522.547 161.276 522.333 161.595C522.076 161.877 521.719 162.048 521.337 162.073L516.717 162.829C516.389 162.883 516.053 162.812 515.775 162.63C515.63 162.536 515.507 162.411 515.415 162.265C515.323 162.118 515.265 161.952 515.244 161.781C515.083 160.331 515.279 158.863 515.815 157.506C516.391 155.937 517.245 154.484 518.337 153.218C519.528 151.828 520.936 150.64 522.506 149.7C524.18 148.679 526.038 147.993 527.975 147.682ZM535.555 179.795C535.759 179.761 535.967 179.768 536.168 179.816C536.368 179.864 536.557 179.952 536.723 180.074C536.889 180.192 537.03 180.342 537.137 180.515C537.245 180.689 537.316 180.882 537.347 181.083L538.17 186.101C538.205 186.305 538.198 186.513 538.15 186.714C538.102 186.914 538.014 187.103 537.892 187.269C537.775 187.437 537.626 187.579 537.452 187.686C537.279 187.794 537.085 187.864 536.883 187.893L531.971 188.703C531.769 188.736 531.564 188.729 531.365 188.681C531.167 188.633 530.98 188.546 530.816 188.424C530.646 188.309 530.501 188.16 530.392 187.987C530.282 187.813 530.209 187.618 530.179 187.415L529.356 182.384C529.295 181.97 529.4 181.55 529.649 181.214C529.898 180.878 530.27 180.654 530.683 180.592L535.555 179.795Z" fill="white"/>
</g>
<path d="M573.243 161.927C573.637 162.214 573.904 162.644 573.985 163.125C574.067 163.606 573.958 164.1 573.681 164.502L570.176 169.414C569.889 169.808 569.459 170.075 568.978 170.157C568.496 170.238 568.002 170.129 567.601 169.852L562.795 166.44C562.597 166.302 562.429 166.124 562.301 165.919C562.173 165.714 562.089 165.484 562.052 165.245C561.982 164.78 562.091 164.306 562.357 163.918L565.862 158.993C566.146 158.597 566.576 158.33 567.056 158.249C567.524 158.179 568 158.293 568.384 158.568L573.243 161.927ZM593.528 128.619C595.26 129.841 596.807 131.308 598.121 132.973C599.389 134.558 600.365 136.356 601.002 138.283C601.61 140.125 601.814 142.077 601.599 144.005C601.35 146.058 600.572 148.011 599.342 149.673C598.425 151.018 597.252 152.168 595.891 153.059C594.68 153.81 593.365 154.378 591.988 154.745C590.652 155.101 589.289 155.341 587.912 155.461L584.009 155.793C582.844 155.9 581.689 156.105 580.558 156.404C579.545 156.672 578.626 157.214 577.902 157.971C577.555 158.309 577.124 158.552 576.655 158.674C576.426 158.728 576.189 158.731 575.96 158.683C575.73 158.635 575.514 158.537 575.327 158.395L571.079 155.382C570.673 155.09 570.397 154.652 570.309 154.161C570.258 153.929 570.262 153.688 570.319 153.458C570.377 153.228 570.487 153.014 570.641 152.833C571.629 151.538 572.871 150.458 574.292 149.66C575.57 148.959 576.936 148.432 578.354 148.094C579.714 147.765 581.1 147.552 582.496 147.456C583.823 147.377 585.151 147.271 586.372 147.151C587.468 147.057 588.551 146.838 589.598 146.501C590.511 146.223 591.305 145.648 591.855 144.868C592.348 144.192 592.669 143.405 592.79 142.577C592.91 141.749 592.826 140.904 592.545 140.115C591.853 138.159 590.526 136.49 588.775 135.376C585.615 133.119 582.164 133.044 578.42 135.15C578.042 135.391 577.624 135.562 577.186 135.655C576.958 135.671 576.729 135.642 576.512 135.569C576.296 135.496 576.096 135.381 575.924 135.23L571.411 132.017C571.082 131.794 570.853 131.451 570.774 131.061C570.735 130.862 570.74 130.657 570.788 130.46C570.836 130.263 570.926 130.079 571.052 129.92C572.103 128.562 573.471 127.482 575.035 126.773C576.831 125.943 578.758 125.435 580.73 125.273C582.889 125.097 585.063 125.268 587.169 125.778C589.456 126.294 591.617 127.26 593.528 128.619Z" fill="#000080"/>
<g opacity="0.6">
<path d="M573.243 161.927C573.637 162.214 573.904 162.644 573.985 163.125C574.067 163.606 573.958 164.1 573.681 164.502L570.176 169.414C569.889 169.808 569.459 170.075 568.978 170.157C568.496 170.238 568.002 170.129 567.601 169.852L562.795 166.44C562.597 166.302 562.429 166.124 562.301 165.919C562.173 165.714 562.089 165.484 562.052 165.245C561.982 164.78 562.091 164.306 562.357 163.918L565.862 158.993C566.146 158.597 566.576 158.33 567.056 158.249C567.524 158.179 568 158.293 568.384 158.568L573.243 161.927ZM593.528 128.619C595.26 129.841 596.807 131.308 598.121 132.973C599.389 134.558 600.365 136.356 601.002 138.283C601.61 140.125 601.814 142.077 601.599 144.005C601.35 146.058 600.572 148.011 599.342 149.673C598.425 151.018 597.252 152.168 595.891 153.059C594.68 153.81 593.365 154.378 591.988 154.745C590.652 155.101 589.289 155.341 587.912 155.461L584.009 155.793C582.844 155.9 581.689 156.105 580.558 156.404C579.545 156.672 578.626 157.214 577.902 157.971C577.555 158.309 577.124 158.552 576.655 158.674C576.426 158.728 576.189 158.731 575.96 158.683C575.73 158.635 575.514 158.537 575.327 158.395L571.079 155.382C570.673 155.09 570.397 154.652 570.309 154.161C570.258 153.929 570.262 153.688 570.319 153.458C570.377 153.228 570.487 153.014 570.641 152.833C571.629 151.538 572.871 150.458 574.292 149.66C575.57 148.959 576.936 148.432 578.354 148.094C579.714 147.765 581.1 147.552 582.496 147.456C583.823 147.377 585.151 147.271 586.372 147.151C587.468 147.057 588.551 146.838 589.598 146.501C590.511 146.223 591.305 145.648 591.855 144.868C592.348 144.192 592.669 143.405 592.79 142.577C592.91 141.749 592.826 140.904 592.545 140.115C591.853 138.159 590.526 136.49 588.775 135.376C585.615 133.119 582.164 133.044 578.42 135.15C578.042 135.391 577.624 135.562 577.186 135.655C576.958 135.671 576.729 135.642 576.512 135.569C576.296 135.496 576.096 135.381 575.924 135.23L571.411 132.017C571.082 131.794 570.853 131.451 570.774 131.061C570.735 130.862 570.74 130.657 570.788 130.46C570.836 130.263 570.926 130.079 571.052 129.92C572.103 128.562 573.471 127.482 575.035 126.773C576.831 125.943 578.758 125.435 580.73 125.273C582.889 125.097 585.063 125.268 587.169 125.778C589.456 126.294 591.617 127.26 593.528 128.619Z" fill="white"/>
</g>
<path d="M145.458 424.753C145.325 420.77 148.193 381.847 148.193 381.847L129.235 395.6C133.125 418.806 133.961 424.288 134.028 428.085C133.948 428.402 133.912 428.728 133.922 429.054C133.922 433.568 139.033 435.997 143.002 439.011C146.376 441.649 149.969 443.994 153.742 446.02C156.622 447.467 162.49 447.6 163.207 445.741C158.375 442.051 151.352 436.528 147.502 432.32C145.67 430.302 145.604 428.709 145.458 424.753Z" fill="#FFA8A7"/>
<path d="M171.451 450.613C171.666 451.233 171.704 451.9 171.561 452.54C171.418 453.181 171.099 453.768 170.641 454.238C167.159 456.748 162.826 457.779 158.587 457.105C152.56 456.322 149.294 454.609 146.891 452.591C144.489 450.574 141.103 447.733 138.369 447.135C136.195 446.721 134.126 445.872 132.289 444.639C131.479 443.856 131.585 440.378 131.585 440.378L171.451 450.613Z" fill="#263238"/>
<path d="M133.988 426.983C133.765 426.99 133.551 427.074 133.383 427.222C133.216 427.37 133.106 427.572 133.072 427.793C132.886 428.749 132.687 431.537 132.289 433.103C131.672 435.872 131.476 438.718 131.705 441.546C132.036 443.338 136.152 444.573 138.794 445.529C141.9 446.881 144.783 448.699 147.343 450.919C151.037 453.681 155.446 455.326 160.047 455.658C164.694 455.658 169.924 454.118 171.132 451.967C172.606 449.312 171.451 447.759 164.561 444.56C163.234 443.962 158.68 441.241 157.114 440.259C152.892 437.603 148.71 433.9 146.759 429.2C146.601 428.626 146.255 428.121 145.776 427.766C145.358 427.586 144.894 427.54 144.449 427.634C143.298 427.801 142.179 428.141 141.13 428.643C140.214 429.081 138.9 429.598 138.913 430.78C138.941 431.189 139.031 431.592 139.179 431.975C139.258 432.227 139.325 432.546 139.179 432.692C139.033 432.838 138.714 432.692 138.528 432.506C137.852 431.814 137.235 431.068 136.683 430.275C136.356 429.869 135.987 429.5 135.581 429.174C135.175 428.943 134.784 428.686 134.413 428.404C133.908 428.045 134.014 427.541 133.988 426.983Z" fill="#455A64"/>
<path d="M147.344 450.985C146.136 450.003 144.861 449.034 143.587 448.184C143.587 448.184 151.685 453.109 154.951 450.839C155.557 450.455 156 449.86 156.196 449.17C156.392 448.479 156.327 447.741 156.013 447.095C156.013 446.538 161.164 444.135 163.208 443.896C163.779 444.215 164.257 444.467 164.535 444.6C171.425 447.799 172.58 449.339 171.107 452.007C169.899 454.158 166.115 455.844 160.115 455.844C156.212 455.923 150.132 453.268 147.344 450.985Z" fill="#37474F"/>
<path d="M155.441 445.489C159.729 447.202 157.897 447.998 156.702 448.144C155.507 448.29 148.299 444.161 143.892 440.63C139.484 437.099 136.417 433.023 134.718 431.696C134.081 431.205 133.391 430.594 132.78 430.023C132.9 429.081 132.992 428.218 133.072 427.766C133.106 427.546 133.216 427.344 133.384 427.196C133.551 427.048 133.765 426.963 133.988 426.957C133.988 427.514 133.908 428.032 134.333 428.443C134.705 428.726 135.095 428.983 135.501 429.213C135.908 429.54 136.277 429.909 136.603 430.315C137.156 431.108 137.773 431.854 138.449 432.546C143.226 437.915 148.996 442.31 155.441 445.489Z" fill="#263238"/>
<path d="M156.396 447.547C156.298 447.543 156.205 447.505 156.131 447.44C156.088 447.407 156.052 447.365 156.025 447.317C155.998 447.269 155.981 447.217 155.975 447.162C155.969 447.108 155.974 447.053 155.989 447C156.004 446.948 156.03 446.899 156.065 446.856C157.074 445.808 158.297 444.988 159.651 444.452C161.004 443.916 162.457 443.677 163.91 443.75C164.024 443.763 164.128 443.821 164.2 443.91C164.272 444 164.307 444.114 164.295 444.228C164.282 444.338 164.226 444.439 164.139 444.509C164.052 444.578 163.941 444.611 163.831 444.6C162.518 444.545 161.209 444.765 159.986 445.245C158.763 445.725 157.653 446.455 156.728 447.387C156.688 447.436 156.637 447.476 156.58 447.504C156.523 447.531 156.46 447.546 156.396 447.547Z" fill="#F5F5F5"/>
<path d="M152.668 445.303C152.566 445.308 152.467 445.275 152.389 445.21C152.313 445.129 152.271 445.022 152.271 444.912C152.271 444.801 152.313 444.694 152.389 444.613C153.401 443.568 154.624 442.752 155.977 442.218C157.33 441.685 158.782 441.447 160.235 441.52C160.347 441.532 160.45 441.589 160.521 441.677C160.592 441.765 160.625 441.878 160.613 441.991C160.601 442.104 160.544 442.207 160.456 442.278C160.367 442.349 160.254 442.382 160.142 442.369C158.829 442.312 157.518 442.53 156.295 443.01C155.072 443.49 153.962 444.222 153.039 445.157C152.994 445.21 152.937 445.251 152.872 445.277C152.807 445.302 152.737 445.311 152.668 445.303Z" fill="#F5F5F5"/>
<path d="M148.923 443.06C148.826 443.061 148.732 443.028 148.657 442.967C148.579 442.887 148.534 442.78 148.534 442.668C148.534 442.556 148.579 442.449 148.657 442.369C149.67 441.325 150.893 440.509 152.246 439.976C153.599 439.443 155.05 439.204 156.503 439.276C156.559 439.281 156.613 439.297 156.663 439.323C156.712 439.349 156.756 439.385 156.792 439.428C156.828 439.471 156.855 439.521 156.871 439.575C156.888 439.629 156.893 439.685 156.888 439.741C156.883 439.797 156.867 439.851 156.841 439.901C156.815 439.95 156.779 439.994 156.736 440.03C156.693 440.066 156.643 440.093 156.589 440.109C156.535 440.126 156.479 440.131 156.423 440.126C155.11 440.068 153.8 440.286 152.576 440.767C151.353 441.247 150.244 441.978 149.321 442.914C149.272 442.969 149.209 443.011 149.14 443.036C149.071 443.062 148.996 443.07 148.923 443.06Z" fill="#F5F5F5"/>
<path d="M145.459 440.577C145.362 440.578 145.268 440.545 145.193 440.484C145.153 440.446 145.121 440.399 145.098 440.348C145.076 440.297 145.065 440.241 145.065 440.185C145.065 440.13 145.076 440.074 145.098 440.023C145.121 439.972 145.153 439.925 145.193 439.887C146.204 438.841 147.428 438.023 148.781 437.49C150.134 436.956 151.586 436.719 153.039 436.794C153.15 436.807 153.25 436.863 153.32 436.95C153.389 437.037 153.422 437.148 153.411 437.258C153.398 437.369 153.341 437.47 153.254 437.539C153.168 437.609 153.057 437.641 152.946 437.63C151.634 437.578 150.325 437.799 149.103 438.279C147.88 438.759 146.77 439.487 145.844 440.418C145.799 440.475 145.74 440.52 145.672 440.548C145.605 440.576 145.531 440.586 145.459 440.577Z" fill="#F5F5F5"/>
<path d="M142.073 438.095C141.977 438.09 141.885 438.058 141.807 438.002C141.728 437.922 141.684 437.815 141.684 437.703C141.684 437.591 141.728 437.484 141.807 437.404C142.902 436.265 144.242 435.39 145.726 434.847C147.21 434.305 148.798 434.107 150.37 434.271C150.426 434.274 150.481 434.289 150.531 434.315C150.581 434.34 150.625 434.376 150.66 434.42C150.695 434.464 150.72 434.515 150.734 434.569C150.748 434.624 150.751 434.681 150.741 434.736C150.728 434.846 150.672 434.947 150.585 435.017C150.498 435.086 150.387 435.119 150.277 435.108C148.848 434.967 147.406 435.146 146.056 435.633C144.706 436.12 143.481 436.902 142.471 437.922C142.424 437.982 142.363 438.029 142.294 438.059C142.224 438.089 142.148 438.102 142.073 438.095Z" fill="#F5F5F5"/>
<path d="M109.748 399.569L90.6179 399.224C90.8967 411.995 92.9278 426.16 93.273 438.134C93.273 440.391 93.273 455.658 94.0695 460.304C95.3971 467.274 103.628 466.331 104.066 462.163C104.504 457.994 103.535 440.166 103.561 438.267C103.482 430.594 107.079 417.624 108.978 403.831C109.057 403.207 109.655 400.233 109.748 399.569Z" fill="#FFA8A7"/>
<path d="M107.172 465.057C107.527 468.252 107.071 471.484 105.844 474.456C105.237 475.636 104.258 476.583 103.057 477.149C101.857 477.716 100.504 477.87 99.2067 477.589C96.379 477.177 92.6487 475.664 91.507 472.279C90.4259 469.161 90.0452 465.843 90.3918 462.561L107.172 465.057Z" fill="#263238"/>
<path d="M93.2197 436.674C92.0913 436.873 92.3037 442.383 92.1975 447.918C92.0781 453.866 90.5779 456.468 90.4319 461.34C90.2593 466.915 90.8036 469.305 93.087 472.465C95.3704 475.624 102.499 478.173 105.38 473.075C107.73 468.92 107.411 464.606 106.601 459.136C105.792 453.667 105.154 449.525 104.942 445.197C104.729 440.869 104.637 437.033 103.614 436.674C103.614 437.285 103.614 438.068 103.614 438.666C103.614 439.263 103.707 441.321 103.07 441.453C102.972 440.941 102.914 440.422 102.897 439.9C102.927 439.418 102.77 438.943 102.459 438.573C102.075 438.289 101.609 438.14 101.132 438.148C99.9947 438.02 98.8511 437.958 97.7068 437.962C97.136 437.962 96.5519 437.962 95.9943 438.055C95.5038 438.092 95.0233 438.213 94.5738 438.413C94.4415 438.47 94.3223 438.553 94.2241 438.658C94.1258 438.764 94.0505 438.888 94.003 439.024C93.9631 439.234 93.9631 439.451 94.003 439.661C94.0495 440.04 94.0495 440.424 94.003 440.803C94.003 440.975 93.8835 441.188 93.7109 441.161C93.5384 441.135 93.5118 440.975 93.4985 440.843C93.4189 440.179 93.4985 439.688 93.4189 438.918C93.4189 438.559 93.4189 438.068 93.4189 437.71C93.4189 437.351 93.233 437.033 93.2197 436.674Z" fill="#455A64"/>
<path d="M90.5247 459.747C90.5247 460.557 90.3521 465.88 91.8522 466.677C93.3523 467.473 93.9365 463.331 93.9365 463.331C93.9365 463.331 97.4544 461.858 102.977 463.636C102.791 464.513 103.88 467.247 105.274 466.504C106.668 465.761 106.601 459.694 106.601 459.614C107.358 464.924 107.597 469.04 105.274 473.075C102.393 478.173 95.2374 475.598 92.9806 472.465C90.7238 469.332 90.1795 466.915 90.3255 461.34C90.3919 460.782 90.4849 460.265 90.5247 459.747Z" fill="#37474F"/>
<path d="M94.3748 463.636C94.5474 465.628 92.5295 465.163 92.1578 462.309C91.7861 459.455 92.6623 452.698 92.1578 447.865C92.264 442.33 92.0516 436.82 93.18 436.621C93.1734 436.687 93.1734 436.754 93.18 436.82L93.3128 439.621C93.2866 440.019 93.2866 440.418 93.3128 440.816C93.6845 444.878 93.9102 452.764 93.9234 456.508C93.9468 458.89 94.0975 461.27 94.3748 463.636Z" fill="#263238"/>
<path d="M102.339 463.636C102.6 461.287 102.728 458.925 102.724 456.561C102.724 452.844 102.963 445.051 103.335 440.962C103.479 440.206 103.537 439.435 103.508 438.666C103.508 438.108 103.508 437.338 103.508 436.807C103.508 436.807 103.508 436.727 103.508 436.674C104.251 436.953 104.517 439.143 104.676 441.905C104.676 443.511 104.676 445.502 104.53 447.918C104.025 452.751 104.902 459.601 104.53 462.402C104.158 465.203 102.207 465.628 102.339 463.636Z" fill="#263238"/>
<path d="M103.122 463.782H102.976C100.108 462.792 96.9902 462.792 94.1217 463.782C94.0694 463.802 94.0136 463.812 93.9576 463.81C93.9016 463.809 93.8465 463.796 93.7953 463.774C93.7442 463.751 93.698 463.718 93.6595 463.678C93.6209 463.637 93.5908 463.589 93.5707 463.537C93.5507 463.484 93.5411 463.429 93.5426 463.373C93.5441 463.317 93.5566 463.262 93.5794 463.21C93.6022 463.159 93.6349 463.113 93.6755 463.075C93.7162 463.036 93.764 463.006 93.8163 462.986C96.8768 461.893 100.221 461.893 103.282 462.986C103.334 463.005 103.382 463.034 103.422 463.072C103.463 463.11 103.495 463.156 103.517 463.207C103.54 463.258 103.551 463.313 103.552 463.368C103.553 463.424 103.542 463.479 103.521 463.53C103.488 463.608 103.432 463.674 103.361 463.719C103.29 463.764 103.207 463.786 103.122 463.782Z" fill="#F5F5F5"/>
<path d="M103.667 459.375C103.619 459.387 103.569 459.387 103.521 459.375C100.296 458.374 96.8431 458.374 93.6179 459.375C93.5648 459.394 93.5084 459.402 93.4522 459.399C93.3959 459.395 93.3408 459.381 93.2902 459.356C93.2395 459.332 93.1943 459.297 93.1571 459.255C93.1199 459.212 93.0916 459.163 93.0736 459.11C93.055 459.057 93.0472 459.002 93.0506 458.947C93.0539 458.891 93.0684 458.837 93.0932 458.788C93.118 458.738 93.1526 458.694 93.1949 458.658C93.2371 458.622 93.2862 458.595 93.3392 458.579C96.7463 457.493 100.406 457.493 103.813 458.579C103.907 458.613 103.985 458.679 104.034 458.766C104.084 458.852 104.101 458.953 104.084 459.051C104.066 459.149 104.015 459.238 103.939 459.302C103.863 459.366 103.767 459.401 103.667 459.402V459.375Z" fill="#F5F5F5"/>
<path d="M93.4456 455.207C93.3644 455.204 93.2853 455.18 93.2173 455.135C93.1494 455.091 93.0951 455.028 93.0606 454.954C93.0157 454.852 93.0127 454.736 93.0525 454.632C93.0922 454.528 93.1715 454.443 93.2731 454.397C96.6266 453.078 100.351 453.055 103.721 454.33C103.773 454.35 103.821 454.379 103.861 454.417C103.902 454.455 103.934 454.501 103.956 454.552C103.979 454.602 103.991 454.657 103.991 454.713C103.992 454.768 103.981 454.823 103.96 454.875C103.918 454.978 103.838 455.061 103.736 455.105C103.635 455.15 103.519 455.153 103.415 455.114C103.415 455.114 98.2115 453.069 93.6315 455.114C93.5773 455.158 93.5138 455.19 93.4456 455.207Z" fill="#F5F5F5"/>
<path d="M93.3525 451.304C93.2723 451.304 93.1936 451.282 93.1255 451.24C93.0574 451.198 93.0026 451.137 92.9675 451.065C92.9216 450.964 92.9168 450.85 92.9539 450.746C92.9911 450.641 93.0674 450.556 93.1666 450.507C94.8309 449.749 96.6353 449.346 98.4642 449.326C100.293 449.305 102.106 449.667 103.787 450.388C103.837 450.41 103.883 450.443 103.92 450.484C103.957 450.524 103.986 450.572 104.005 450.624C104.023 450.676 104.031 450.731 104.028 450.787C104.025 450.842 104.011 450.896 103.986 450.945C103.963 450.996 103.931 451.041 103.89 451.078C103.849 451.116 103.802 451.145 103.75 451.163C103.698 451.182 103.642 451.19 103.587 451.186C103.532 451.183 103.478 451.169 103.429 451.144C101.851 450.491 100.158 450.165 98.4513 450.186C96.7444 450.206 95.0595 450.573 93.4985 451.264C93.4524 451.285 93.403 451.298 93.3525 451.304Z" fill="#F5F5F5"/>
<path d="M93.2586 446.936C93.1614 446.938 93.0666 446.906 92.99 446.846C92.9135 446.786 92.8599 446.701 92.8382 446.606C92.8164 446.512 92.8278 446.412 92.8705 446.325C92.9132 446.237 92.9846 446.167 93.0727 446.126C98.1306 443.63 103.587 446.02 103.813 446.126C103.865 446.146 103.913 446.177 103.953 446.217C103.993 446.257 104.024 446.304 104.044 446.357C104.064 446.41 104.073 446.466 104.07 446.523C104.066 446.579 104.051 446.634 104.025 446.684C103.979 446.785 103.894 446.865 103.79 446.904C103.685 446.944 103.57 446.941 103.467 446.896C103.467 446.896 98.1572 444.573 93.4577 446.896C93.3963 446.928 93.3274 446.942 93.2586 446.936Z" fill="#F5F5F5"/>
<path d="M96.9108 275.378C90.1669 294.057 91.3484 305.779 92.5033 325.36C93.5654 343.308 95.2513 359.119 95.2513 359.119C94.9858 362.306 90.5519 368.518 89.9412 382.59C89.7455 392.499 90.1889 402.409 91.2687 412.261C91.2687 412.261 100.097 415.487 107.558 412.261C107.558 412.261 115.191 378.555 117.275 362.08C119.081 347.703 122.24 329.33 122.24 329.33L128.878 362.014C127.58 366.406 126.914 370.961 126.9 375.541C126.9 383.228 130.471 404.601 130.471 404.601C130.471 404.601 140.361 407.8 146.627 402.238C146.627 402.238 149.11 371.479 149.986 359.757C151.154 344.118 149.455 301.252 145.698 279.308L96.9108 275.378Z" fill="#455A64"/>
<path d="M122.319 329.276L125.08 304.69C125.08 304.69 137.439 303.044 143.041 297.774C141.434 300.287 139.292 302.415 136.768 304.006C134.244 305.596 131.4 306.609 128.439 306.974L124.456 329.861L128.97 361.96L122.319 329.276Z" fill="#37474F"/>
<path d="M152.88 257.151C146.866 250.965 136.007 236.973 136.007 236.973L129.874 215.732C131.244 215.803 132.618 215.803 133.989 215.732C140.627 216.17 142.578 216.741 146.707 221.255C149.986 224.852 162.491 241.924 166.832 247.673L178.368 232.977C181.143 228.795 180.692 224.109 182.125 220.697C183.559 217.285 185.882 215.785 187.741 212.732C189.599 209.679 190.038 207.634 191.564 209.214C193.091 210.794 191.325 215.042 191.1 216.011C190.874 216.98 188.537 219.861 192.427 218.361C196.317 216.861 202.317 209.758 203.857 208.311C205.397 206.864 206.22 209.108 205.875 210.887C205.53 212.666 207.203 216.675 206.592 219.609C206.212 222.56 204.744 225.263 202.477 227.189C199.675 230.003 192.825 233.468 190.144 237.172C187.462 240.876 181.74 252.385 178.196 259.315C173.749 268.13 169.965 271.037 164.921 268.064C159.876 265.09 155.097 259.448 152.88 257.151Z" fill="#FFA8A7"/>
<path d="M131.824 215.506C135.219 215.167 138.645 215.622 141.834 216.834C145.431 218.454 147.874 221.932 151.392 226.644C154.91 231.357 161.189 239.601 161.189 239.601C161.189 239.601 159.49 246.757 148.286 253.182L129.992 234.344L131.824 215.506Z" fill="#37474F"/>
<path d="M166.831 247.659C164.643 249.724 163.177 252.437 162.649 255.399C162.649 255.399 161.322 251.138 165.849 246.345L166.831 247.659Z" fill="#F28F8F"/>
<path d="M145.073 253.222C153.238 246.504 150.543 237.756 147.569 231.862C141.608 220.086 135.409 215.453 132.82 215.493L116.584 215.652C108.831 216.714 102.831 216.183 100.959 216.621C96.1799 217.75 96.0737 221.679 95.8879 226.764C95.6888 232.34 92.8346 231.397 94.2816 240.61C95.9882 244.035 97.4866 247.559 98.7686 251.164C99.6448 254.35 102.114 259.421 100.8 264.572C100.295 266.563 98.9412 268.555 96.9101 274.011C94.6071 280.144 92.8956 286.483 91.7991 292.942C91.7991 292.942 96.5384 291.84 101.928 286.105C101.928 286.105 109.296 295.968 127.019 294.973C145.405 293.937 147.025 284.352 147.025 284.352L144.21 267.094C144.635 260.125 144.821 257.603 145.073 253.222Z" fill="#000080"/>
<path opacity="0.1" d="M134.466 251.483C134.466 251.483 127.829 256.793 120.036 254.244C117.865 253.593 115.897 252.398 114.319 250.771C112.741 249.144 111.606 247.141 111.022 244.951C111.022 244.951 110.358 253.779 120.155 256.62C122.776 257.415 125.583 257.345 128.161 256.42C130.739 255.494 132.949 253.763 134.466 251.483Z" fill="white"/>
<path d="M87.9884 207.913C85.5856 206.16 72.6421 223.485 78.6957 227.826C84.7492 232.167 91.2011 219.861 89.9001 214.046C88.5991 208.231 87.9884 207.913 87.9884 207.913Z" fill="#37474F"/>
<path d="M76.2404 199.31C79.4796 194.823 81.6833 191.438 84.6437 187.588C86.3164 185.398 87.3917 183.845 88.998 181.601C90.1132 180.061 90.7637 178.76 92.0116 178.269C93.4047 177.656 94.6497 176.75 95.6623 175.614C96.2823 174.896 96.8544 174.137 97.3748 173.344C99.246 170.753 101.482 168.445 104.012 166.494C106.668 164.436 109.575 162.843 112.283 160.878C113.889 159.71 115.615 157.785 113.611 156.046C112.988 155.543 112.248 155.205 111.46 155.064C106.628 154.094 102.446 155.834 97.7465 157.121C95.703 157.678 93.7057 158.393 91.7726 159.259C90.8129 159.648 89.9178 160.181 89.1175 160.838C88.0059 162 87.1072 163.348 86.4624 164.821C84.4048 168.604 80.0637 171.976 77.0237 174.937C73.4526 178.415 70.2665 181.574 66.1909 185.438C62.5269 188.889 58.9293 192.075 55.5706 195.845C52.7961 198.952 53.8714 201.341 54.2431 202.151C56.6327 206.851 59.2347 208.51 62.3676 211.444C63.4031 212.4 64.4519 213.342 65.5006 214.285C69.5629 217.949 73.6252 221.374 77.8467 224.905C82.3604 228.622 84.2189 230.428 88.2413 234.039C90.7797 236.37 92.8951 239.123 94.494 242.177C101.464 243.332 108.314 232.671 102.34 220.206C101.357 218.19 99.8712 216.461 98.0253 215.188C90.6707 209.944 76.2404 199.31 76.2404 199.31Z" fill="#FFA8A7"/>
<path d="M76.2406 199.311C74.0663 202.071 71.145 204.149 67.824 205.298C67.824 205.298 72.2712 206.36 78.2451 200.797L76.2406 199.311Z" fill="#F28F8F"/>
<path d="M101.516 216.515C99.8834 215.387 95.9141 212.984 87.9887 207.913C87.9887 207.913 89.21 210.475 87.2851 216.914C85.3602 223.352 81.2979 227.428 78.749 227.892C78.749 227.892 83.183 231.397 87.2718 235.353C91.3606 239.309 94.7193 242.11 97.0823 246.703C97.0823 246.703 102.923 245.203 104.251 235.3C105.18 228.357 104.623 220.206 101.516 216.515Z" fill="#455A64"/>
<path d="M145.856 184.628C147.023 182.161 147.537 179.437 147.349 176.715C147.161 173.993 146.276 171.365 144.781 169.082C139.749 161.927 131.266 158.462 121.894 158.568H118.987C106.335 158.781 94.8387 169.64 94.613 181.867C94.613 190.469 94.613 198.421 99.3523 204.289C103.72 209.745 110.53 211.537 116.278 212.413C127.27 214.086 139.617 212.811 144.608 205.324C144.608 205.324 137.97 206.652 138.807 199.775C138.926 198.686 137.891 197.492 136.072 196.257C137.346 194.05 138.845 191.982 140.546 190.084C142.418 188.212 144.582 187.163 145.856 184.628Z" fill="#263238"/>
<path d="M142.577 190.907C142.511 203.718 138.409 206.944 136.351 207.9C134.294 208.856 130.258 208.351 126.342 207.78L126.474 215.467C126.474 215.467 131.054 220.1 130.789 223.631C130.523 227.162 123.779 227.614 118.668 224.308C115.853 222.444 113.299 220.211 111.075 217.67C110.65 217.179 110.411 216.554 110.398 215.905L110.079 197.837C110.079 197.837 107.982 200.134 104.158 197.611C103.332 197.106 102.621 196.435 102.068 195.641C101.515 194.846 101.134 193.945 100.948 192.995C100.761 192.045 100.775 191.067 100.987 190.122C101.2 189.178 101.606 188.288 102.18 187.509C102.721 186.984 103.369 186.583 104.081 186.336C104.792 186.089 105.55 186.001 106.299 186.078C107.048 186.155 107.772 186.396 108.418 186.783C109.064 187.17 109.618 187.694 110.039 188.319C111.208 190.496 111.101 192.036 112.694 191.783C114.288 191.531 114.354 189.805 114.46 188.571C114.566 187.336 114.46 186.938 114.619 185.318C118.403 184.509 122.319 179.238 122.757 175.388C125.32 176.649 128.145 177.286 131.001 177.247C135.236 176.955 137.427 176.105 139.511 173.052C140.007 173.75 140.405 174.514 140.692 175.322C141.282 176.957 141.726 178.64 142.02 180.353C142.493 183.85 142.679 187.38 142.577 190.907Z" fill="#FFA8A7"/>
<path d="M126.342 207.78C122.213 207.302 113.704 205.019 112.323 201.7C112.881 203.385 113.942 204.858 115.363 205.922C117.939 208.046 126.382 210.342 126.382 210.342L126.342 207.78Z" fill="#F28F8F"/>
<path d="M130.497 200.877C130.505 201.211 130.414 201.539 130.234 201.821C130.055 202.103 129.796 202.325 129.49 202.46C129.185 202.594 128.846 202.635 128.517 202.576C128.188 202.518 127.884 202.363 127.643 202.132C127.403 201.9 127.236 201.603 127.165 201.276C127.093 200.95 127.121 200.61 127.243 200.299C127.365 199.988 127.577 199.721 127.851 199.531C128.126 199.34 128.451 199.236 128.785 199.231C129.23 199.224 129.659 199.393 129.98 199.701C130.301 200.009 130.487 200.432 130.497 200.877Z" fill="#B16668"/>
<path d="M128.333 188.266C128.355 188.501 128.33 188.739 128.26 188.964C128.189 189.19 128.075 189.4 127.923 189.581C127.771 189.763 127.585 189.912 127.375 190.021C127.165 190.131 126.936 190.197 126.7 190.217C126.337 190.256 125.971 190.185 125.648 190.014C125.326 189.843 125.061 189.58 124.89 189.258C124.718 188.936 124.646 188.57 124.684 188.207C124.721 187.843 124.867 187.5 125.101 187.22C125.335 186.94 125.648 186.736 125.999 186.635C126.349 186.534 126.722 186.54 127.07 186.652C127.417 186.765 127.723 186.978 127.948 187.266C128.173 187.553 128.307 187.901 128.333 188.266Z" fill="#263238"/>
<path d="M140.307 187.509C140.34 187.941 140.201 188.369 139.92 188.7C139.639 189.031 139.239 189.237 138.807 189.274C138.589 189.301 138.368 189.281 138.159 189.214C137.95 189.148 137.758 189.037 137.595 188.89C137.433 188.742 137.304 188.562 137.217 188.36C137.131 188.158 137.089 187.94 137.095 187.721C137.073 187.506 137.094 187.289 137.157 187.082C137.221 186.876 137.325 186.684 137.463 186.518C137.602 186.352 137.772 186.216 137.964 186.117C138.156 186.018 138.366 185.959 138.581 185.942C139.017 185.924 139.443 186.078 139.766 186.371C140.089 186.665 140.283 187.073 140.307 187.509Z" fill="#263238"/>
<path d="M132.037 185.849L133.311 196.549L138.794 194.266L132.037 185.849Z" fill="#F28F8F"/>
<path d="M121.934 183.645L125.12 180.619C125.516 181.06 125.728 181.637 125.711 182.23C125.694 182.824 125.449 183.387 125.027 183.805C124.817 184.004 124.568 184.159 124.296 184.259C124.025 184.359 123.735 184.403 123.446 184.388C123.157 184.374 122.873 184.3 122.613 184.172C122.353 184.045 122.122 183.865 121.934 183.645Z" fill="#263238"/>
<path d="M137.879 179.636L141.41 182.292C141.248 182.531 141.038 182.735 140.794 182.891C140.549 183.046 140.276 183.15 139.99 183.196C139.704 183.242 139.411 183.23 139.131 183.158C138.85 183.087 138.587 182.959 138.357 182.783C137.895 182.416 137.588 181.887 137.5 181.304C137.411 180.72 137.547 180.124 137.879 179.636Z" fill="#263238"/>
<path d="M86.9802 82.3942C89.5256 81.9088 92.1278 81.7925 94.7064 82.049C97.1707 82.2651 99.5763 82.9216 101.809 83.9872C103.951 85.0097 105.844 86.4865 107.358 88.315C108.954 90.2719 110.015 92.6092 110.438 95.0987C110.836 97.0522 110.836 99.066 110.438 101.02C110.081 102.72 109.472 104.357 108.632 105.878C107.817 107.358 106.871 108.762 105.805 110.073C104.743 111.401 103.734 112.622 102.791 113.804C101.89 114.916 101.09 116.106 100.402 117.362C99.7688 118.476 99.4607 119.745 99.5121 121.026C99.5199 121.621 99.3686 122.207 99.074 122.725C98.935 122.969 98.7442 123.18 98.5148 123.343C98.2854 123.506 98.0232 123.617 97.7465 123.667L91.4938 124.849C91.1968 124.908 90.8909 124.907 90.5944 124.845C90.2979 124.783 90.0169 124.663 89.768 124.49C89.509 124.342 89.2901 124.133 89.1305 123.88C88.9708 123.628 88.8752 123.341 88.852 123.043C88.5472 121.079 88.6465 119.073 89.144 117.149C89.6161 115.434 90.3077 113.788 91.2017 112.25C92.0661 110.786 93.0566 109.4 94.1621 108.109C95.264 106.781 96.2596 105.586 97.1756 104.418C98.0177 103.369 98.7475 102.234 99.3528 101.033C99.8735 99.9902 100.037 98.8054 99.8174 97.6608C99.6411 96.6521 99.2213 95.7016 98.5943 94.8919C97.9674 94.0822 97.1523 93.4377 96.2198 93.0145C93.9068 91.9633 91.3087 91.7156 88.8387 92.3109C84.1835 93.1959 81.1965 96.1784 79.8778 101.258C79.7618 101.794 79.5553 102.306 79.2672 102.772C78.899 103.197 78.3804 103.464 77.8201 103.515L71.1825 104.776C70.724 104.858 70.2515 104.768 69.8549 104.524C69.6464 104.386 69.4691 104.207 69.3342 103.996C69.1993 103.786 69.1099 103.55 69.0717 103.303C68.785 101.209 69.0128 99.0763 69.7354 97.09C70.487 94.7958 71.6375 92.6521 73.1339 90.7577C74.8118 88.6833 76.8107 86.8906 79.0548 85.4475C81.4733 83.9248 84.1652 82.8878 86.9802 82.3942ZM99.1006 128.526C99.6908 128.424 100.298 128.555 100.793 128.892C101.288 129.229 101.634 129.745 101.756 130.332L103.083 137.58C103.144 137.87 103.143 138.17 103.081 138.461C103.02 138.751 102.898 139.025 102.725 139.266C102.562 139.513 102.351 139.725 102.105 139.889C101.858 140.053 101.582 140.166 101.291 140.222L94.2152 141.549C93.9226 141.61 93.6205 141.61 93.3281 141.548C93.0356 141.486 92.7591 141.365 92.516 141.191C92.269 141.028 92.0572 140.817 91.8931 140.571C91.7289 140.324 91.6157 140.048 91.5602 139.757L90.2326 132.509C90.1771 132.217 90.1815 131.917 90.2454 131.628C90.3093 131.338 90.4314 131.064 90.6043 130.823C90.7633 130.572 90.973 130.358 91.2199 130.193C91.4669 130.028 91.7456 129.917 92.0381 129.867L99.1006 128.526Z" fill="#000080"/>
<path d="M154.445 112.304C156.011 113.172 157.442 114.263 158.693 115.543C159.91 116.742 160.896 118.155 161.601 119.711C162.277 121.199 162.626 122.816 162.623 124.451C162.621 126.193 162.164 127.905 161.295 129.416C160.645 130.626 159.766 131.699 158.707 132.575C157.758 133.312 156.707 133.907 155.587 134.341C154.498 134.766 153.375 135.095 152.228 135.323L148.989 135.96C148.017 136.147 147.066 136.427 146.148 136.797C145.322 137.103 144.6 137.637 144.064 138.337C143.803 138.658 143.458 138.901 143.068 139.04C142.885 139.109 142.689 139.136 142.494 139.12C142.299 139.104 142.11 139.045 141.94 138.947L138.103 136.797C137.73 136.593 137.453 136.249 137.333 135.841C137.268 135.647 137.249 135.441 137.276 135.238C137.304 135.035 137.378 134.842 137.493 134.673C138.2 133.499 139.139 132.482 140.254 131.686C141.264 130.98 142.362 130.409 143.52 129.986C144.63 129.591 145.771 129.289 146.931 129.084C148.086 128.885 149.162 128.685 150.171 128.473C151.081 128.283 151.971 128.003 152.826 127.637C153.564 127.311 154.178 126.757 154.578 126.057C154.927 125.441 155.121 124.75 155.144 124.042C155.167 123.335 155.019 122.632 154.711 121.995C153.953 120.414 152.686 119.133 151.113 118.357C149.759 117.574 148.196 117.228 146.637 117.366C145.079 117.504 143.601 118.119 142.405 119.127C142.109 119.368 141.771 119.552 141.409 119.671C141.029 119.734 140.639 119.649 140.32 119.432L136.232 117.149C135.942 116.986 135.724 116.721 135.621 116.406C135.569 116.241 135.553 116.067 135.574 115.895C135.594 115.723 135.651 115.558 135.74 115.41C136.515 114.176 137.576 113.147 138.833 112.41C140.265 111.546 141.838 110.944 143.48 110.631C145.277 110.279 147.12 110.22 148.936 110.458C150.874 110.713 152.745 111.34 154.445 112.304ZM140.453 142.107C140.633 142.207 140.792 142.341 140.92 142.503C141.047 142.665 141.141 142.851 141.197 143.049C141.255 143.245 141.274 143.451 141.251 143.654C141.228 143.857 141.164 144.053 141.064 144.231L138.581 148.678C138.38 149.04 138.043 149.307 137.645 149.422C137.247 149.536 136.82 149.488 136.457 149.289L132.116 146.859C131.933 146.765 131.773 146.631 131.647 146.468C131.521 146.306 131.432 146.117 131.386 145.917C131.323 145.722 131.301 145.517 131.321 145.313C131.342 145.11 131.405 144.913 131.505 144.735L133.988 140.288C134.089 140.11 134.224 139.953 134.386 139.828C134.548 139.703 134.733 139.611 134.931 139.558C135.126 139.496 135.332 139.476 135.535 139.499C135.739 139.521 135.935 139.587 136.112 139.691L140.453 142.107Z" fill="#000080"/>
<g opacity="0.2">
<path d="M154.445 112.304C156.011 113.172 157.442 114.263 158.693 115.543C159.91 116.742 160.896 118.155 161.601 119.711C162.277 121.199 162.626 122.816 162.623 124.451C162.621 126.193 162.164 127.905 161.295 129.416C160.645 130.626 159.766 131.699 158.707 132.575C157.758 133.312 156.707 133.907 155.587 134.341C154.498 134.766 153.375 135.095 152.228 135.323L148.989 135.96C148.017 136.147 147.066 136.427 146.148 136.797C145.322 137.103 144.6 137.637 144.064 138.337C143.803 138.658 143.458 138.901 143.068 139.04C142.885 139.109 142.689 139.136 142.494 139.12C142.299 139.104 142.11 139.045 141.94 138.947L138.103 136.797C137.73 136.593 137.453 136.249 137.333 135.841C137.268 135.647 137.249 135.441 137.276 135.238C137.304 135.035 137.378 134.842 137.493 134.673C138.2 133.499 139.139 132.482 140.254 131.686C141.264 130.98 142.362 130.409 143.52 129.986C144.63 129.591 145.771 129.289 146.931 129.084C148.086 128.885 149.162 128.685 150.171 128.473C151.081 128.283 151.971 128.003 152.826 127.637C153.564 127.311 154.178 126.757 154.578 126.057C154.927 125.441 155.121 124.75 155.144 124.042C155.167 123.335 155.019 122.632 154.711 121.995C153.953 120.414 152.686 119.133 151.113 118.357C149.759 117.574 148.196 117.228 146.637 117.366C145.079 117.504 143.601 118.119 142.405 119.127C142.109 119.368 141.771 119.552 141.409 119.671C141.029 119.734 140.639 119.649 140.32 119.432L136.232 117.149C135.942 116.986 135.724 116.721 135.621 116.406C135.569 116.241 135.553 116.067 135.574 115.895C135.594 115.723 135.651 115.558 135.74 115.41C136.515 114.176 137.576 113.147 138.833 112.41C140.265 111.546 141.838 110.944 143.48 110.631C145.277 110.279 147.12 110.22 148.936 110.458C150.874 110.713 152.745 111.34 154.445 112.304ZM140.453 142.107C140.633 142.207 140.792 142.341 140.92 142.503C141.047 142.665 141.141 142.851 141.197 143.049C141.255 143.245 141.274 143.451 141.251 143.654C141.228 143.857 141.164 144.053 141.064 144.231L138.581 148.678C138.38 149.04 138.043 149.307 137.645 149.422C137.247 149.536 136.82 149.488 136.457 149.289L132.116 146.859C131.933 146.765 131.773 146.631 131.647 146.468C131.521 146.306 131.432 146.117 131.386 145.917C131.323 145.722 131.301 145.517 131.321 145.313C131.342 145.11 131.405 144.913 131.505 144.735L133.988 140.288C134.089 140.11 134.224 139.953 134.386 139.828C134.548 139.703 134.733 139.611 134.931 139.558C135.126 139.496 135.332 139.476 135.535 139.499C135.739 139.521 135.935 139.587 136.112 139.691L140.453 142.107Z" fill="white"/>
</g>
<path d="M60.9344 161.051C61.1112 160.884 61.3199 160.754 61.548 160.67C61.7761 160.585 62.019 160.548 62.2619 160.559C62.5111 160.563 62.757 160.616 62.985 160.717C63.2131 160.817 63.4186 160.962 63.5895 161.144L67.6783 165.578C67.8465 165.758 67.9773 165.971 68.0631 166.202C68.1488 166.434 68.1879 166.68 68.178 166.927C68.1682 167.174 68.1095 167.416 68.0055 167.64C67.9015 167.865 67.7542 168.066 67.5721 168.233L63.2443 172.215C63.0635 172.383 62.8511 172.514 62.6194 172.6C62.3878 172.686 62.1415 172.725 61.8947 172.715C61.6479 172.705 61.4054 172.646 61.1814 172.542C60.9573 172.438 60.7561 172.291 60.5892 172.109L56.5004 167.675C56.3306 167.495 56.1983 167.283 56.1116 167.051C56.0248 166.819 55.9852 166.573 55.9951 166.325C56.005 166.078 56.0641 165.835 56.1692 165.611C56.2742 165.387 56.4229 165.186 56.6066 165.02L60.9344 161.051ZM32.5251 134.301C34.0775 132.85 35.83 131.63 37.729 130.677C39.5324 129.765 41.4831 129.181 43.4906 128.951C45.4176 128.738 47.3679 128.937 49.2122 129.535C51.1718 130.204 52.9238 131.37 54.2967 132.92C55.4455 134.087 56.3483 135.473 56.9518 136.996C57.4387 138.331 57.725 139.731 57.8014 141.151C57.8772 142.533 57.8328 143.919 57.6687 145.293C57.4961 146.62 57.3368 147.948 57.1907 149.182C57.0467 150.345 57.0067 151.518 57.0713 152.687C57.1154 153.738 57.456 154.755 58.0536 155.621C58.311 156.018 58.4576 156.476 58.4785 156.949C58.49 157.181 58.4482 157.413 58.3561 157.627C58.2641 157.841 58.1243 158.032 57.9474 158.183L54.1241 161.728C53.7615 162.056 53.2859 162.232 52.7966 162.219C52.5539 162.228 52.3126 162.178 52.0931 162.074C51.8735 161.97 51.6823 161.815 51.5354 161.622C50.4733 160.387 49.6697 158.951 49.1724 157.4C48.7566 156.007 48.5246 154.565 48.4821 153.112C48.4407 151.709 48.5206 150.306 48.7211 148.917C48.9202 147.589 49.0795 146.262 49.2122 145.067C49.3312 143.968 49.3312 142.86 49.2122 141.762C49.1256 140.815 48.729 139.924 48.0838 139.226C47.5225 138.604 46.8183 138.128 46.032 137.839C45.2456 137.55 44.4007 137.456 43.5702 137.567C41.5218 137.831 39.618 138.765 38.1539 140.222C35.3041 142.877 34.5208 146.244 35.8041 150.324C35.9615 150.749 36.0424 151.199 36.0431 151.652C36.0102 151.875 35.9335 152.09 35.8173 152.284C35.7011 152.477 35.5477 152.646 35.366 152.78L31.2905 156.55C31.0057 156.825 30.6244 156.978 30.2285 156.975C30.0257 156.972 29.826 156.925 29.6428 156.838C29.4596 156.751 29.2972 156.626 29.1664 156.471C28.0379 155.165 27.249 153.601 26.8698 151.917C26.4193 149.991 26.3159 147.999 26.5645 146.036C26.8371 143.884 27.4557 141.791 28.3965 139.837C29.3984 137.74 30.801 135.859 32.5251 134.301Z" fill="#000080"/>
<g opacity="0.6">
<path d="M60.9344 161.051C61.1112 160.884 61.3199 160.754 61.548 160.67C61.7761 160.585 62.019 160.548 62.2619 160.559C62.5111 160.563 62.757 160.616 62.985 160.717C63.2131 160.817 63.4186 160.962 63.5895 161.144L67.6783 165.578C67.8465 165.758 67.9773 165.971 68.0631 166.202C68.1488 166.434 68.1879 166.68 68.178 166.927C68.1682 167.174 68.1095 167.416 68.0055 167.64C67.9015 167.865 67.7542 168.066 67.5721 168.233L63.2443 172.215C63.0635 172.383 62.8511 172.514 62.6194 172.6C62.3878 172.686 62.1415 172.725 61.8947 172.715C61.6479 172.705 61.4054 172.646 61.1814 172.542C60.9573 172.438 60.7561 172.291 60.5892 172.109L56.5004 167.675C56.3306 167.495 56.1983 167.283 56.1116 167.051C56.0248 166.819 55.9852 166.573 55.9951 166.325C56.005 166.078 56.0641 165.835 56.1692 165.611C56.2742 165.387 56.4229 165.186 56.6066 165.02L60.9344 161.051ZM32.5251 134.301C34.0775 132.85 35.83 131.63 37.729 130.677C39.5324 129.765 41.4831 129.181 43.4906 128.951C45.4176 128.738 47.3679 128.937 49.2122 129.535C51.1718 130.204 52.9238 131.37 54.2967 132.92C55.4455 134.087 56.3483 135.473 56.9518 136.996C57.4387 138.331 57.725 139.731 57.8014 141.151C57.8772 142.533 57.8328 143.919 57.6687 145.293C57.4961 146.62 57.3368 147.948 57.1907 149.182C57.0467 150.345 57.0067 151.518 57.0713 152.687C57.1154 153.738 57.456 154.755 58.0536 155.621C58.311 156.018 58.4576 156.476 58.4785 156.949C58.49 157.181 58.4482 157.413 58.3561 157.627C58.2641 157.841 58.1243 158.032 57.9474 158.183L54.1241 161.728C53.7615 162.056 53.2859 162.232 52.7966 162.219C52.5539 162.228 52.3126 162.178 52.0931 162.074C51.8735 161.97 51.6823 161.815 51.5354 161.622C50.4733 160.387 49.6697 158.951 49.1724 157.4C48.7566 156.007 48.5246 154.565 48.4821 153.112C48.4407 151.709 48.5206 150.306 48.7211 148.917C48.9202 147.589 49.0795 146.262 49.2122 145.067C49.3312 143.968 49.3312 142.86 49.2122 141.762C49.1256 140.815 48.729 139.924 48.0838 139.226C47.5225 138.604 46.8183 138.128 46.032 137.839C45.2456 137.55 44.4007 137.456 43.5702 137.567C41.5218 137.831 39.618 138.765 38.1539 140.222C35.3041 142.877 34.5208 146.244 35.8041 150.324C35.9615 150.749 36.0424 151.199 36.0431 151.652C36.0102 151.875 35.9335 152.09 35.8173 152.284C35.7011 152.477 35.5477 152.646 35.366 152.78L31.2905 156.55C31.0057 156.825 30.6244 156.978 30.2285 156.975C30.0257 156.972 29.826 156.925 29.6428 156.838C29.4596 156.751 29.2972 156.626 29.1664 156.471C28.0379 155.165 27.249 153.601 26.8698 151.917C26.4193 149.991 26.3159 147.999 26.5645 146.036C26.8371 143.884 27.4557 141.791 28.3965 139.837C29.3984 137.74 30.801 135.859 32.5251 134.301Z" fill="white"/>
</g>
<path d="M331.261 253.673C327.477 251.509 311.547 242.296 306.13 239.163C305.055 238.552 304.378 238.154 304.325 238.114C301.632 236.613 298.485 236.141 295.47 236.787C292.882 237.312 290.404 238.277 288.142 239.641C287.771 239.853 287.399 240.106 287.04 240.345C280.92 244.208 275.663 250.288 271.283 258.651C266.822 266.798 264.429 275.915 264.313 285.202C264.313 293.999 266.658 300.172 271.349 303.721C271.824 304.075 272.32 304.399 272.836 304.69C277.23 307.186 299.267 319.957 299.758 320.236H299.878C299.336 319.939 298.816 319.601 298.325 319.227C293.625 315.687 291.28 309.518 291.289 300.721C291.404 291.434 293.797 282.317 298.258 274.17C302.887 265.32 308.502 258.979 315.105 255.147C321.388 251.518 326.813 251.044 331.38 253.726L331.261 253.673Z" fill="#000080"/>
<path opacity="0.4" d="M331.38 253.753C326.814 251.098 321.388 251.567 315.105 255.16C308.972 258.7 303.684 264.453 299.241 272.418L272.265 256.793C276.434 249.345 281.359 243.863 287.027 240.291C287.386 240.066 287.757 239.8 288.129 239.588C290.388 238.223 292.868 237.261 295.457 236.747C298.472 236.094 301.621 236.566 304.312 238.074L306.117 239.123C311.534 242.243 327.464 251.456 331.248 253.62L331.38 253.753Z" fill="white"/>
<path opacity="0.3" d="M299.878 320.196H299.758C299.267 319.917 277.19 307.146 272.836 304.651C272.32 304.359 271.824 304.035 271.349 303.682C266.658 300.141 264.313 293.973 264.313 285.176C264.425 275.888 266.819 266.77 271.283 258.625C271.601 258.001 271.933 257.39 272.278 256.806L299.241 272.378C298.909 272.962 298.577 273.573 298.258 274.184C293.797 282.33 291.404 291.447 291.289 300.734C291.289 309.532 293.634 315.7 298.325 319.24C298.818 319.597 299.337 319.916 299.878 320.196Z" fill="white"/>
<path d="M319.5 25.8676C332.59 18.3007 343.732 15.0836 352.927 16.2164C356.67 16.6635 360.283 17.8648 363.548 19.7477C363.456 19.6995 363.368 19.6463 363.282 19.5884C360.123 17.8095 341.086 6.83075 336.731 4.2686C333.41 2.32727 329.721 1.09762 325.899 0.657697C316.694 -0.466284 305.548 2.74636 292.458 10.2956C272.103 22.0399 255.73 39.2979 243.339 62.0696C230.949 84.8413 224.82 108.086 224.953 131.805L251.915 147.377C251.729 123.641 257.858 100.391 270.301 77.6283C282.745 54.8655 299.144 37.6119 319.5 25.8676Z" fill="#000080"/>
<path opacity="0.2" d="M363.334 19.6017C360.116 17.8097 356.582 16.6599 352.926 16.2164C343.739 15.0836 332.597 18.3007 319.498 25.8676C299.143 37.6031 282.77 54.8611 270.379 77.6416C269.862 78.5842 269.357 79.54 268.866 80.4825L241.837 64.884C242.329 63.9414 242.833 62.9856 243.351 62.043C255.794 39.2891 272.167 22.0311 292.47 10.2691C305.577 2.71097 316.724 -0.501673 325.91 0.631159C329.733 1.07555 333.422 2.30971 336.743 4.25534C341.137 6.84403 360.174 17.836 363.334 19.6017Z" fill="white"/>
<path opacity="0.3" d="M268.8 80.4559C257.374 102.307 251.75 124.605 251.927 147.351L224.964 131.779C224.796 109.025 230.421 86.7263 241.837 64.8839L268.8 80.4559Z" fill="white"/>
<path d="M337.819 69.9951C332.925 67.3931 326.389 68.4109 318.211 73.0484C317.935 77.9138 316.933 82.7106 315.237 87.2796C313.193 92.7845 307.246 104.139 297.395 121.344C287.191 139.133 279.81 156.121 275.252 172.308C270.731 188.29 268.435 204.819 268.428 221.427L268.561 229.698L286.961 240.318L295.537 245.27L295.391 236.986V236.88C295.42 220.325 297.716 203.852 302.214 187.92C306.772 171.733 314.158 154.749 324.371 136.969C334.212 119.764 340.155 108.405 342.2 102.891C344.241 97.4405 345.285 91.6665 345.28 85.8459C345.28 77.9249 342.793 72.6413 337.819 69.9951Z" fill="#000080"/>
<path opacity="0.3" d="M339.558 108.852C336.513 115.189 331.451 124.544 324.371 136.916C314.149 154.705 306.763 171.693 302.214 187.88C297.711 203.825 295.415 220.312 295.391 236.88V237.092L295.537 245.376L286.961 240.438L268.561 229.817L268.428 221.534C268.436 204.925 270.732 188.397 275.252 172.415C279.81 156.228 287.191 139.24 297.395 121.451C304.476 109.06 309.547 99.7099 312.609 93.3997L339.558 108.852Z" fill="white"/>
<path opacity="0.4" d="M345.28 85.8459C345.283 91.6479 344.244 97.4033 342.213 102.838C341.643 104.392 340.753 106.396 339.558 108.852L312.609 93.2933C313.786 90.833 314.671 88.8284 315.264 87.2796C316.96 82.7106 317.962 77.9138 318.238 73.0484C326.416 68.4109 332.952 67.3931 337.846 69.9951C342.74 72.597 345.218 77.8806 345.28 85.8459Z" fill="white"/>
<path d="M288.421 126.269L251.927 147.351C251.741 123.614 257.87 100.365 270.314 77.6017C282.757 54.8389 299.13 37.5809 319.432 25.8278C332.522 18.2608 343.664 15.0438 352.86 16.1766C362.055 17.3094 369.414 22.3496 374.937 31.2972C380.468 40.2448 383.234 51.405 383.234 64.7777C383.179 72.5416 382.289 80.277 380.579 87.8503C378.51 96.9097 375.718 105.788 372.229 114.401C369.998 120.03 364.657 130.42 356.205 145.572C348.125 160.015 343.063 169.843 341.018 175.056C338.749 181.244 337.064 187.631 335.987 194.133C334.38 203.851 333.492 213.675 333.332 223.525L295.59 245.323L295.444 237.039C295.452 220.43 297.748 203.902 302.267 187.92C306.825 171.733 314.211 154.749 324.424 136.969C334.266 119.764 340.208 108.405 342.253 102.891C344.276 97.4371 345.302 91.6632 345.28 85.8457C345.28 77.8805 342.797 72.5969 337.832 69.9949C332.867 67.393 326.203 68.4815 317.839 73.2607C309.29 78.1991 302.276 85.6068 296.798 95.4837C291.44 104.869 288.558 115.463 288.421 126.269Z" fill="#000080"/>
<path d="M315.039 255.239C321.809 251.319 327.588 251.075 332.376 254.509C337.164 257.943 339.558 264.054 339.558 272.843C339.413 282.181 336.974 291.34 332.456 299.513C327.73 308.496 322.017 314.921 315.317 318.789C308.618 322.656 302.927 322.816 298.245 319.267C293.555 315.727 291.209 309.553 291.209 300.747C291.325 291.46 293.718 282.343 298.179 274.197C302.825 265.364 308.445 259.045 315.039 255.239Z" fill="#000080"/>
</svg>
